<?xml version="1.0" encoding="utf-8"?>
<!-- Generator: Adobe Illustrator 19.1.0, SVG Export Plug-In . SVG Version: 6.00 Build 0)  -->
<svg version="1.1" id="Layer_1" xmlns="http://www.w3.org/2000/svg" xmlns:xlink="http://www.w3.org/1999/xlink" x="0px" y="0px"
	 viewBox="0 0 118.3 78.3" style="enable-background:new 0 0 118.3 78.3;" xml:space="preserve">
<style type="text/css">
	.st0{fill:none;}
	.st1{fill:#66BC46;}
	.st2{fill:#377BBF;}
</style>
<g>
	<path class="st0" d="M47.2,4l-32-0.3l15.8,14.9L47.2,4z M28.2,8.9c0-1.7,1.3-3,3-3c1.7,0,3,1.3,3,3c0,1.7-1.3,3-3,3
		C29.6,11.9,28.2,10.5,28.2,8.9z"/>
	<path class="st0" d="M103.1,4l-32-0.3L87,18.7L103.1,4z M84.1,8.9c0-1.7,1.3-3,3-3s3,1.3,3,3c0,1.7-1.3,3-3,3S84.1,10.5,84.1,8.9z"
		/>
	<polygon class="st0" points="2.8,0 56.4,0.5 55.9,0 2.7,0 	"/>
	<path class="st0" d="M71.1,75.1l32-0.3L87,60.2L71.1,75.1z M90.1,70c0,1.7-1.3,3-3,3s-3-1.3-3-3c0-1.7,1.3-3,3-3S90.1,68.3,90.1,70
		z"/>
	<path class="st0" d="M15.2,75.1l32-0.3L31.1,60.2L15.2,75.1z M34.2,70c0,1.7-1.3,3-3,3c-1.7,0-3-1.3-3-3c0-1.7,1.3-3,3-3
		C32.9,67,34.2,68.3,34.2,70z"/>
	<polygon class="st0" points="115.7,0.5 116.3,0 59.1,0 59.1,0 	"/>
	<polygon class="st0" points="59.1,0 55.9,0 59.1,0 	"/>
	<polygon class="st1" points="2.7,0 0,0 2.8,0 	"/>
	<polygon class="st1" points="59.1,0 59.1,0 59.1,0 	"/>
	<polygon class="st1" points="118.3,0.6 118.3,0 116.3,0 115.7,0.5 	"/>
	<path class="st1" d="M59.4,3.3L30.9,29.1L0,0v23.1c1.7,0,3,1.3,3,3c0,1.7-1.3,3-3,3v10.1c1.7,0,3,1.3,3,3s-1.3,3-3,3V55
		c1.7,0,3,1.3,3,3s-1.3,3-3,3v17.4h0.6l30.3-28.6l28.5,25.8l27.4-25.8l31.5,28.6V61.1c0,0-0.1,0-0.1,0c-1.7,0-3-1.3-3-3s1.3-3,3-3
		c0,0,0.1,0,0.1,0v-9.7c0,0-0.1,0-0.1,0c-1.7,0-3-1.3-3-3c0-1.7,1.3-3,3-3c0,0,0.1,0,0.1,0V29.3c0,0-0.1,0-0.1,0c-1.7,0-3-1.3-3-3
		s1.3-3,3-3c0,0,0.1,0,0.1,0V0.6L86.8,29.1L59.4,3.3z M6.5,32.1c0-1.7,1.3-3,3-3c1.7,0,3,1.3,3,3c0,1.7-1.3,3-3,3
		C7.8,35.1,6.5,33.8,6.5,32.1z M10.8,55c-1.7,0-3-1.3-3-3s1.3-3,3-3s3,1.3,3,3S12.5,55,10.8,55z M19.2,45.2c-1.7,0-3-1.3-3-3
		s1.3-3,3-3c1.7,0,3,1.3,3,3S20.8,45.2,19.2,45.2z M37.3,45.4c-1.7,0-3-1.3-3-3s1.3-3,3-3s3,1.3,3,3S38.9,45.4,37.3,45.4z
		 M45.6,55.2c-1.7,0-3-1.3-3-3s1.3-3,3-3s3,1.3,3,3S47.3,55.2,45.6,55.2z M46.9,35.3c-1.7,0-3-1.3-3-3s1.3-3,3-3s3,1.3,3,3
		S48.6,35.3,46.9,35.3z M56.4,61.2c0,0-0.1,0-0.1,0c0,0-0.1,0-0.1,0c-1.7,0-3-1.3-3-3s1.3-3,3-3c0,0,0.1,0,0.1,0c0,0,0.1,0,0.1,0
		c1.7,0,3,1.3,3,3S58.1,61.2,56.4,61.2z M56.4,45.4c0,0-0.1,0-0.1,0c0,0-0.1,0-0.1,0c-1.7,0-3-1.3-3-3s1.3-3,3-3c0,0,0.1,0,0.1,0
		c0,0,0.1,0,0.1,0c1.7,0,3,1.3,3,3S58.1,45.4,56.4,45.4z M56.4,29.3c0,0-0.1,0-0.1,0c0,0-0.1,0-0.1,0c-1.7,0-3-1.3-3-3s1.3-3,3-3
		c0,0,0.1,0,0.1,0c0,0,0.1,0,0.1,0c1.7,0,3,1.3,3,3S58.1,29.3,56.4,29.3z M62.7,32.3c0-1.7,1.3-3,3-3s3,1.3,3,3s-1.3,3-3,3
		S62.7,34,62.7,32.3z M67,55.2c-1.7,0-3-1.3-3-3s1.3-3,3-3s3,1.3,3,3S68.7,55.2,67,55.2z M75.3,45.4c-1.7,0-3-1.3-3-3s1.3-3,3-3
		s3,1.3,3,3S77,45.4,75.3,45.4z M109,29.3c1.7,0,3,1.3,3,3s-1.3,3-3,3s-3-1.3-3-3S107.3,29.3,109,29.3z M107.6,49.2c1.7,0,3,1.3,3,3
		s-1.3,3-3,3s-3-1.3-3-3S106,49.2,107.6,49.2z M99.3,39.4c1.7,0,3,1.3,3,3s-1.3,3-3,3s-3-1.3-3-3S97.6,39.4,99.3,39.4z"/>
	<path class="st2" d="M2.8,0L0,0l30.9,29.1L59.4,3.3l27.4,25.8l31.5-28.6l-2.7,0L59.1,0l-0.1,0l-3.2,0l0.5,0.5L2.8,0z M47.2,4
		L31.1,18.7L15.2,3.8L47.2,4z M103.1,4L87,18.7L71.1,3.8L103.1,4z"/>
	<circle class="st2" cx="31.2" cy="8.9" r="3"/>
	<circle class="st2" cx="87.1" cy="8.9" r="3"/>
	<path class="st2" d="M59.4,75.6L30.9,49.8L0.6,78.3h117.7L86.8,49.8L59.4,75.6z M15.2,75.1l15.8-14.9l16.1,14.6L15.2,75.1z
		 M71.1,75.1L87,60.2l16.1,14.6L71.1,75.1z"/>
	<circle class="st2" cx="31.2" cy="70" r="3"/>
	<circle class="st2" cx="87.1" cy="70" r="3"/>
	<path class="st2" d="M3,42.2c0-1.7-1.3-3-3-3v6C1.7,45.2,3,43.9,3,42.2z"/>
	<path class="st2" d="M3,26.1c0-1.7-1.3-3-3-3v6C1.7,29.1,3,27.8,3,26.1z"/>
	<path class="st2" d="M3,58c0-1.7-1.3-3-3-3v6C1.7,61,3,59.6,3,58z"/>
	<circle class="st2" cx="9.5" cy="32.1" r="3"/>
	<circle class="st2" cx="10.8" cy="52" r="3"/>
	<circle class="st2" cx="19.2" cy="42.2" r="3"/>
	<path class="st2" d="M53.4,42.4c0-1.6,1.3-2.9,2.9-3c0,0-0.1,0-0.1,0c-1.7,0-3,1.3-3,3s1.3,3,3,3c0,0,0.1,0,0.1,0
		C54.7,45.3,53.4,44,53.4,42.4z"/>
	<path class="st2" d="M53.4,26.3c0-1.6,1.3-2.9,2.9-3c0,0-0.1,0-0.1,0c-1.7,0-3,1.3-3,3s1.3,3,3,3c0,0,0.1,0,0.1,0
		C54.7,29.2,53.4,27.9,53.4,26.3z"/>
	<path class="st2" d="M53.4,58.2c0-1.6,1.3-2.9,2.9-3c0,0-0.1,0-0.1,0c-1.7,0-3,1.3-3,3s1.3,3,3,3c0,0,0.1,0,0.1,0
		C54.7,61.1,53.4,59.8,53.4,58.2z"/>
	<circle class="st2" cx="65.7" cy="32.3" r="3"/>
	<circle class="st2" cx="67" cy="52.2" r="3"/>
	<circle class="st2" cx="75.3" cy="42.4" r="3"/>
	<path class="st2" d="M56.4,39.4c0,0-0.1,0-0.1,0c-1.6,0.1-2.9,1.4-2.9,3s1.3,2.9,2.9,3c0,0,0.1,0,0.1,0c1.7,0,3-1.3,3-3
		S58.1,39.4,56.4,39.4z"/>
	<path class="st2" d="M56.4,23.3c0,0-0.1,0-0.1,0c-1.6,0.1-2.9,1.4-2.9,3s1.3,2.9,2.9,3c0,0,0.1,0,0.1,0c1.7,0,3-1.3,3-3
		S58.1,23.3,56.4,23.3z"/>
	<path class="st2" d="M56.4,55.2c0,0-0.1,0-0.1,0c-1.6,0.1-2.9,1.4-2.9,3s1.3,2.9,2.9,3c0,0,0.1,0,0.1,0c1.7,0,3-1.3,3-3
		S58.1,55.2,56.4,55.2z"/>
	<circle class="st2" cx="46.9" cy="32.3" r="3"/>
	<circle class="st2" cx="45.6" cy="52.2" r="3"/>
	<circle class="st2" cx="37.3" cy="42.4" r="3"/>
	<path class="st2" d="M115.2,42.4c0,1.7,1.3,3,3,3c0,0,0.1,0,0.1,0l0,0c-1.6-0.1-2.9-1.4-2.9-3s1.3-2.9,2.9-3l0,0c0,0-0.1,0-0.1,0
		C116.6,39.4,115.2,40.8,115.2,42.4z"/>
	<path class="st2" d="M115.2,26.3c0,1.7,1.3,3,3,3c0,0,0.1,0,0.1,0l0,0c-1.6-0.1-2.9-1.4-2.9-3s1.3-2.9,2.9-3l0,0c0,0-0.1,0-0.1,0
		C116.6,23.3,115.2,24.7,115.2,26.3z"/>
	<path class="st2" d="M115.2,58.2c0,1.7,1.3,3,3,3c0,0,0.1,0,0.1,0l0,0c-1.6-0.1-2.9-1.4-2.9-3s1.3-2.9,2.9-3l0,0c0,0-0.1,0-0.1,0
		C116.6,55.2,115.2,56.5,115.2,58.2z"/>
	<path class="st2" d="M115.5,42.4c0,1.6,1.3,2.9,2.9,3v-6C116.8,39.5,115.5,40.8,115.5,42.4z"/>
	<path class="st2" d="M115.5,26.3c0,1.6,1.3,2.9,2.9,3v-6C116.8,23.4,115.5,24.7,115.5,26.3z"/>
	<path class="st2" d="M115.5,58.2c0,1.6,1.3,2.9,2.9,3v-6C116.8,55.2,115.5,56.5,115.5,58.2z"/>
	<circle class="st2" cx="109" cy="32.3" r="3"/>
	<circle class="st2" cx="107.6" cy="52.2" r="3"/>
	<circle class="st2" cx="99.3" cy="42.4" r="3"/>
</g>
</svg>
