<?xml version="1.0" encoding="utf-8"?>
<!-- Generator: Adobe Illustrator 19.1.0, SVG Export Plug-In . SVG Version: 6.00 Build 0)  -->
<svg version="1.1" id="Layer_1" xmlns="http://www.w3.org/2000/svg" xmlns:xlink="http://www.w3.org/1999/xlink" x="0px" y="0px"
	 viewBox="0 0 118.4 105.9" style="enable-background:new 0 0 118.4 105.9;" xml:space="preserve">
<style type="text/css">
	.st0{fill:none;}
	.st1{display:none;fill:none;}
	.st2{fill:#D4B02A;}
	.st3{fill:#D3B02A;}
	.st4{fill:#D6B12B;}
</style>
<g>
	<path class="st0" d="M55.9,18.1L71.7,2.9l-31.6,0L55.9,18.1z M59.9,4.7c1,0,1.9,0.8,1.9,1.9c0,1-0.8,1.9-1.9,1.9
		c-1,0-1.9-0.8-1.9-1.9C58.1,5.5,58.9,4.7,59.9,4.7z M56.4,9.6c1,0,1.9,0.8,1.9,1.9c0,1-0.8,1.9-1.9,1.9s-1.9-0.8-1.9-1.9
		C54.5,10.4,55.3,9.6,56.4,9.6z M52.1,4.7c1,0,1.9,0.8,1.9,1.9c0,1-0.8,1.9-1.9,1.9c-1,0-1.9-0.8-1.9-1.9C50.2,5.5,51,4.7,52.1,4.7z
		"/>
	<path class="st1" d="M-4.3-3.1v114.5h125.8V-3.1H-4.3z M0,11.5c0.1,0,0.2,0,0.3,0c1,0,1.9,0.8,1.9,1.9c0,1-0.8,1.9-1.9,1.9
		c-0.1,0-0.2,0-0.3,0V11.5z M2.1,8.4c0-1,0.8-1.9,1.9-1.9s1.9,0.8,1.9,1.9c0,1-0.8,1.9-1.9,1.9S2.1,9.4,2.1,8.4z M50.3,104.5
		c-0.9,0.9-2,1.3-3.2,1.3c-1.1,0-2.3-0.4-3.2-1.3L27.3,88.2l-16.6,16.4c-0.9,0.9-2,1.3-3.2,1.3c-1.2,0-2.3-0.4-3.2-1.3
		c-1.7-1.8-1.7-4.6,0-6.4l17.9-17.7V39.6c0-2.8,2.2-5,5-5s5,2.2,5,5v40.8l17.9,17.7C52,99.9,52,102.8,50.3,104.5z M50.3,44.8
		c-0.9,0.9-2,1.3-3.2,1.3c-1.1,0-2.3-0.4-3.2-1.3L27.3,28.4L10.7,44.8c-0.9,0.9-2,1.3-3.2,1.3c-1.2,0-2.3-0.4-3.2-1.3
		c-1.7-1.8-1.7-4.6,0-6.4l19.8-19.5c0.1-0.1,0.2-0.2,0.3-0.3c0.1-0.1,0.2-0.2,0.4-0.3c0.1-0.1,0.2-0.1,0.4-0.2
		c0.1-0.1,0.3-0.2,0.4-0.2c0.1-0.1,0.3-0.1,0.4-0.1c0.1,0,0.3-0.1,0.4-0.1c0.1,0,0.3,0,0.4,0c0.2,0,0.3,0,0.5,0c0.1,0,0.3,0,0.4,0
		c0.2,0,0.3,0,0.5,0c0.1,0,0.3,0.1,0.4,0.1c0.1,0,0.3,0.1,0.4,0.1c0.1,0.1,0.3,0.1,0.4,0.2c0.1,0.1,0.3,0.1,0.4,0.2
		c0.1,0.1,0.2,0.2,0.4,0.3c0.1,0.1,0.2,0.2,0.3,0.3l19.8,19.5C52,40.2,52,43,50.3,44.8z M106.1,104.5c-0.9,0.9-2,1.3-3.2,1.3
		c-1.1,0-2.3-0.4-3.2-1.3L83.1,88.2l-16.6,16.4c-0.9,0.9-2,1.3-3.2,1.3c-1.2,0-2.3-0.4-3.2-1.3c-1.7-1.8-1.7-4.6,0-6.4l17.9-17.7
		V39.6c0-2.8,2.2-5,5-5s5,2.2,5,5v40.8L106,98.2C107.8,99.9,107.8,102.8,106.1,104.5z M106.1,44.8c-0.9,0.9-2,1.3-3.2,1.3
		c-1.1,0-2.3-0.4-3.2-1.3L83.1,28.4L66.5,44.8c-0.9,0.9-2,1.3-3.2,1.3c-1.2,0-2.3-0.4-3.2-1.3c-1.7-1.8-1.7-4.6,0-6.4l19.8-19.5
		c0.1-0.1,0.2-0.2,0.3-0.3c0.1-0.1,0.2-0.2,0.4-0.3c0.1-0.1,0.2-0.1,0.4-0.2c0.1-0.1,0.3-0.2,0.4-0.2c0.1-0.1,0.3-0.1,0.4-0.1
		c0.1,0,0.3-0.1,0.4-0.1c0.1,0,0.3,0,0.4,0c0.2,0,0.3,0,0.5,0c0.1,0,0.3,0,0.4,0c0.2,0,0.3,0,0.5,0c0.1,0,0.3,0.1,0.4,0.1
		c0.1,0,0.3,0.1,0.4,0.1c0.1,0.1,0.3,0.1,0.4,0.2c0.1,0.1,0.3,0.1,0.4,0.2c0.1,0.1,0.2,0.2,0.4,0.3c0.1,0.1,0.2,0.2,0.3,0.3
		L106,38.4C107.8,40.2,107.8,43,106.1,44.8z M118.4,10.7c-0.2,0.1-0.4,0.1-0.7,0.1c-1,0-1.9-0.8-1.9-1.9c0-1,0.8-1.9,1.9-1.9
		c0.2,0,0.5,0,0.7,0.1V10.7z M116,13.9c0,1-0.8,1.9-1.9,1.9c-1,0-1.9-0.8-1.9-1.9c0-1,0.8-1.9,1.9-1.9C115.1,12,116,12.9,116,13.9z
		 M118.4,1.1v3.6l-20.4,0l15.8,15.2l4.6-4.4V27l-4.6,4.4L83.9,2.7l-28,26.9L28.3,3.2L0,30.5V18.9L14.8,4.7L0,4.7V1.1V0h25h61.7h31.6
		V1.1z M111.7,9c0,1-0.8,1.9-1.9,1.9s-1.9-0.8-1.9-1.9c0-1,0.8-1.9,1.9-1.9S111.7,7.9,111.7,9z"/>
	<path class="st2" d="M86.3,18.9c-0.1-0.1-0.2-0.2-0.3-0.3c-0.1-0.1-0.2-0.2-0.4-0.3c-0.1-0.1-0.3-0.1-0.4-0.2
		c-0.1-0.1-0.3-0.1-0.4-0.2c-0.1-0.1-0.3-0.1-0.4-0.1c-0.1,0-0.3-0.1-0.4-0.1c-0.2,0-0.3,0-0.5,0c-0.1,0-0.3,0-0.4,0
		c-0.2,0-0.3,0-0.5,0c-0.1,0-0.3,0-0.4,0c-0.1,0-0.3,0.1-0.4,0.1c-0.1,0-0.3,0.1-0.4,0.1c-0.1,0.1-0.3,0.1-0.4,0.2
		c-0.1,0.1-0.3,0.1-0.4,0.2c-0.1,0.1-0.2,0.2-0.4,0.3c-0.1,0.1-0.2,0.2-0.3,0.3L60.2,38.4c-1.8,1.7-1.8,4.6,0,6.4
		c0.9,0.9,2,1.3,3.2,1.3c1.1,0,2.3-0.4,3.2-1.3l16.6-16.4l16.6,16.4c0.9,0.9,2,1.3,3.2,1.3c1.2,0,2.3-0.4,3.2-1.3
		c1.7-1.8,1.7-4.6,0-6.4L86.3,18.9z"/>
	<path class="st2" d="M88.1,80.5V39.6c0-2.8-2.2-5-5-5s-5,2.2-5,5v40.8L60.2,98.2c-1.8,1.7-1.8,4.6,0,6.4c0.9,0.9,2,1.3,3.2,1.3
		c1.1,0,2.3-0.4,3.2-1.3l16.6-16.4l16.6,16.4c0.9,0.9,2,1.3,3.2,1.3c1.2,0,2.3-0.4,3.2-1.3c1.7-1.8,1.7-4.6,0-6.4L88.1,80.5z"/>
	<polygon class="st3" points="25,0 0,0 0,1.1 26.1,1.1 	"/>
	<polygon class="st3" points="85.6,1.1 118.4,1.1 118.4,0 86.8,0 	"/>
	<path class="st3" d="M86.8,0H25l1.1,1.1L0,1.1v3.6l14.8,0L0,18.9v11.6L28.3,3.2l27.6,26.5l28-26.9l29.9,28.7l4.6-4.4V15.4l-4.6,4.4
		L97.9,4.7l20.4,0V1.1l-32.7,0L86.8,0z M55.9,18.1L40.1,2.9l31.6,0L55.9,18.1z"/>
	<circle class="st3" cx="52.1" cy="6.5" r="1.9"/>
	<circle class="st3" cx="59.9" cy="6.5" r="1.9"/>
	<circle class="st3" cx="56.4" cy="11.4" r="1.9"/>
	<circle class="st3" cx="109.8" cy="9" r="1.9"/>
	<path class="st3" d="M115.8,9c0,1,0.8,1.9,1.9,1.9c0.2,0,0.5,0,0.7-0.1V7.2c-0.2-0.1-0.4-0.1-0.7-0.1C116.7,7.1,115.8,7.9,115.8,9z
		"/>
	<circle class="st3" cx="114.1" cy="13.9" r="1.9"/>
	<circle class="st3" cx="3.9" cy="8.4" r="1.9"/>
	<path class="st3" d="M2.2,13.3c0-1-0.8-1.9-1.9-1.9c-0.1,0-0.2,0-0.3,0v3.6c0.1,0,0.2,0,0.3,0C1.4,15.1,2.2,14.3,2.2,13.3z"/>
	<path class="st4" d="M30.5,18.9c-0.1-0.1-0.2-0.2-0.3-0.3c-0.1-0.1-0.2-0.2-0.4-0.3c-0.1-0.1-0.3-0.1-0.4-0.2
		c-0.1-0.1-0.3-0.1-0.4-0.2c-0.1-0.1-0.3-0.1-0.4-0.1c-0.1,0-0.3-0.1-0.4-0.1c-0.2,0-0.3,0-0.5,0c-0.1,0-0.3,0-0.4,0
		c-0.2,0-0.3,0-0.5,0c-0.1,0-0.3,0-0.4,0c-0.1,0-0.3,0.1-0.4,0.1c-0.1,0-0.3,0.1-0.4,0.1c-0.1,0.1-0.3,0.1-0.4,0.2
		c-0.1,0.1-0.3,0.1-0.4,0.2c-0.1,0.1-0.2,0.2-0.4,0.3c-0.1,0.1-0.2,0.2-0.3,0.3L4.4,38.4c-1.8,1.7-1.8,4.6,0,6.4
		c0.9,0.9,2,1.3,3.2,1.3c1.1,0,2.3-0.4,3.2-1.3l16.6-16.4l16.6,16.4c0.9,0.9,2,1.3,3.2,1.3c1.2,0,2.3-0.4,3.2-1.3
		c1.7-1.8,1.7-4.6,0-6.4L30.5,18.9z"/>
	<path class="st4" d="M32.3,80.5V39.6c0-2.8-2.2-5-5-5s-5,2.2-5,5v40.8L4.4,98.2c-1.8,1.7-1.8,4.6,0,6.4c0.9,0.9,2,1.3,3.2,1.3
		c1.1,0,2.3-0.4,3.2-1.3l16.6-16.4l16.6,16.4c0.9,0.9,2,1.3,3.2,1.3c1.2,0,2.3-0.4,3.2-1.3c1.7-1.8,1.7-4.6,0-6.4L32.3,80.5z"/>
</g>
</svg>
