<?xml version="1.0" encoding="utf-8"?>
<!-- Generator: Adobe Illustrator 19.1.0, SVG Export Plug-In . SVG Version: 6.00 Build 0)  -->
<svg version="1.1" id="Layer_1" xmlns="http://www.w3.org/2000/svg" xmlns:xlink="http://www.w3.org/1999/xlink" x="0px" y="0px"
	 viewBox="0 0 118.4 147.1" style="enable-background:new 0 0 118.4 147.1;" xml:space="preserve">
<style type="text/css">
	.st0{fill:#D6B12B;}
	.st1{fill:#D3B02A;}
	.st2{display:none;fill:#FFFFFF;}
</style>
<g>
	<path class="st0" d="M76,66.5C76,66.5,76,66.5,76,66.5l-14.5,0l0-14.5c0-3-2.5-5.5-5.5-5.5c0,0,0,0,0,0c-3,0-5.5,2.5-5.5,5.5
		l0,14.5l-14.5,0c-3,0-5.5,2.5-5.5,5.5c0,3,2.5,5.5,5.5,5.5c0,0,0,0,0,0l14.5,0l0,14.5c0,3,2.5,5.5,5.5,5.5c0,0,0,0,0,0
		c3,0,5.5-2.5,5.5-5.5l0-14.5l14.5,0c3,0,5.5-2.5,5.5-5.5C81.5,68.9,79.1,66.5,76,66.5z"/>
	<path class="st0" d="M53.2,128.4c0-1.6,1.3-2.9,2.9-3c0,0-0.1,0-0.1,0c-1.7,0-3,1.3-3,3s1.3,3,3,3c0,0,0.1,0,0.1,0
		C54.4,131.3,53.2,130,53.2,128.4z"/>
	<path class="st0" d="M53.2,112.2c0-1.6,1.3-2.9,2.9-3c0,0-0.1,0-0.1,0c-1.7,0-3,1.3-3,3s1.3,3,3,3c0,0,0.1,0,0.1,0
		C54.4,115.2,53.2,113.9,53.2,112.2z"/>
	<path class="st0" d="M53.2,144.1c0-1.6,1.3-2.9,2.9-3c0,0-0.1,0-0.1,0c-1.7,0-3,1.3-3,3c0,1.7,1.3,3,3,3c0,0,0.1,0,0.1,0
		C54.4,147,53.2,145.7,53.2,144.1z"/>
	<circle class="st0" cx="65.4" cy="118.2" r="3"/>
	<circle class="st0" cx="66.7" cy="138.1" r="3"/>
	<circle class="st0" cx="75.1" cy="128.4" r="3"/>
	<path class="st0" d="M56.2,125.4c0,0-0.1,0-0.1,0c-1.6,0.1-2.9,1.4-2.9,3s1.3,2.9,2.9,3c0,0,0.1,0,0.1,0c1.7,0,3-1.3,3-3
		S57.8,125.4,56.2,125.4z"/>
	<path class="st0" d="M56.2,109.2c0,0-0.1,0-0.1,0c-1.6,0.1-2.9,1.4-2.9,3s1.3,2.9,2.9,3c0,0,0.1,0,0.1,0c1.7,0,3-1.3,3-3
		S57.8,109.2,56.2,109.2z"/>
	<path class="st0" d="M56.2,141.1c0,0-0.1,0-0.1,0c-1.6,0.1-2.9,1.4-2.9,3c0,1.6,1.3,2.9,2.9,3c0,0,0.1,0,0.1,0c1.7,0,3-1.3,3-3
		C59.2,142.4,57.8,141.1,56.2,141.1z"/>
	<circle class="st0" cx="46.7" cy="118.2" r="3"/>
	<circle class="st0" cx="45.3" cy="138.1" r="3"/>
	<circle class="st0" cx="37" cy="128.4" r="3"/>
	<path class="st0" d="M54.2,22.1c0,0,0.1,0,0.1,0c-1.6-0.1-2.9-1.4-2.9-3s1.3-2.9,2.9-3c0,0-0.1,0-0.1,0c-1.7,0-3,1.3-3,3
		S52.6,22.1,54.2,22.1z"/>
	<path class="st0" d="M54.2,6c0,0,0.1,0,0.1,0c-1.6-0.1-2.9-1.4-2.9-3s1.3-2.9,2.9-3c0,0-0.1,0-0.1,0c-1.7,0-3,1.3-3,3
		S52.6,6,54.2,6z"/>
	<path class="st0" d="M54.2,37.8c0,0,0.1,0,0.1,0c-1.6-0.1-2.9-1.4-2.9-3s1.3-2.9,2.9-3c0,0-0.1,0-0.1,0c-1.7,0-3,1.3-3,3
		C51.2,36.5,52.6,37.8,54.2,37.8z"/>
	<circle class="st0" cx="63.7" cy="9" r="3"/>
	<circle class="st0" cx="65" cy="28.8" r="3"/>
	<circle class="st0" cx="73.4" cy="19.1" r="3"/>
	<path class="st0" d="M51.5,19.1c0,1.6,1.3,2.9,2.9,3c0,0,0.1,0,0.1,0c1.7,0,3-1.3,3-3s-1.3-3-3-3c0,0-0.1,0-0.1,0
		C52.8,16.2,51.5,17.5,51.5,19.1z"/>
	<path class="st0" d="M51.5,3c0,1.6,1.3,2.9,2.9,3c0,0,0.1,0,0.1,0c1.7,0,3-1.3,3-3s-1.3-3-3-3c0,0-0.1,0-0.1,0
		C52.8,0.1,51.5,1.4,51.5,3z"/>
	<path class="st0" d="M51.5,34.8c0,1.6,1.3,2.9,2.9,3c0,0,0.1,0,0.1,0c1.7,0,3-1.3,3-3c0-1.7-1.3-3-3-3c0,0-0.1,0-0.1,0
		C52.8,31.9,51.5,33.2,51.5,34.8z"/>
	<circle class="st0" cx="45" cy="9" r="3"/>
	<circle class="st0" cx="43.6" cy="28.8" r="3"/>
	<circle class="st0" cx="35.3" cy="19.1" r="3"/>
	<path class="st1" d="M112.6,18.8c0,2.3,1.8,4.1,4.1,4.1c0.6,0,1.1-0.1,1.6-0.3v-7.6c-0.5-0.2-1.1-0.3-1.6-0.3
		C114.4,14.7,112.6,16.6,112.6,18.8z"/>
	<circle class="st1" cx="105.2" cy="25.8" r="4.1"/>
	<circle class="st1" cx="105.2" cy="9" r="4.1"/>
	<path class="st1" d="M114.2,129.8c0,2.3,1.8,4.1,4.1,4.1v-8.3C116.1,125.7,114.2,127.5,114.2,129.8z"/>
	<circle class="st1" cx="106.8" cy="136.8" r="4.1"/>
	<circle class="st1" cx="106.8" cy="119.9" r="4.1"/>
	<path class="st1" d="M0,14.1v7.6c1.5-0.6,2.5-2.1,2.5-3.8S1.5,14.8,0,14.1z"/>
	<circle class="st1" cx="9.9" cy="24.9" r="4.1"/>
	<circle class="st1" cx="9.9" cy="8.1" r="4.1"/>
	<path class="st1" d="M0,131.3c0.5-0.7,0.8-1.5,0.8-2.5s-0.3-1.8-0.8-2.5V131.3z"/>
	<circle class="st1" cx="8.3" cy="135.9" r="4.1"/>
	<circle class="st1" cx="8.3" cy="119" r="4.1"/>
	<circle class="st1" cx="103.5" cy="72.7" r="4.1"/>
	<path class="st1" d="M115.1,75.5c-2.3,0-4.1,1.8-4.1,4.1s1.8,4.1,4.1,4.1c1.3,0,2.5-0.7,3.3-1.7v-4.9
		C117.6,76.2,116.4,75.5,115.1,75.5z"/>
	<path class="st1" d="M115.1,58.7c-2.3,0-4.1,1.8-4.1,4.1s1.8,4.1,4.1,4.1c1.3,0,2.5-0.7,3.3-1.7v-4.9
		C117.6,59.4,116.4,58.7,115.1,58.7z"/>
	<circle class="st1" cx="11.6" cy="72.7" r="4.1"/>
	<path class="st1" d="M0,75.5v8.3c2.3,0,4.1-1.8,4.1-4.1S2.3,75.5,0,75.5z"/>
	<path class="st1" d="M0,67c2.3,0,4.1-1.8,4.1-4.1S2.3,58.7,0,58.7V67z"/>
	<circle class="st1" cx="12.1" cy="45.2" r="4.1"/>
	<circle class="st1" cx="21.6" cy="37" r="4.1"/>
	<circle class="st1" cx="90.2" cy="104.2" r="4.1"/>
	<circle class="st1" cx="99.7" cy="96" r="4.1"/>
	<circle class="st1" cx="99.7" cy="44.2" r="4.1"/>
	<circle class="st1" cx="90.2" cy="36" r="4.1"/>
	<circle class="st1" cx="21.6" cy="103.2" r="4.1"/>
	<circle class="st1" cx="12.1" cy="95" r="4.1"/>
	<rect x="-4.3" y="-119.7" class="st2" width="125.8" height="114.5"/>
</g>
</svg>
