<?xml version="1.0" encoding="utf-8"?>
<!-- Generator: Adobe Illustrator 19.1.0, SVG Export Plug-In . SVG Version: 6.00 Build 0)  -->
<svg version="1.1" id="Layer_1" xmlns="http://www.w3.org/2000/svg" xmlns:xlink="http://www.w3.org/1999/xlink" x="0px" y="0px"
	 viewBox="0 0 123.5 40.3" style="enable-background:new 0 0 123.5 40.3;" xml:space="preserve">
<style type="text/css">
	.st0{fill:none;}
	.st1{fill:#AD4B9C;}
</style>
<g>
	<path class="st0" d="M122.5,21.7c-0.9,0-1.7-0.7-1.7-1.6c0-0.4,0.1-0.7,0.3-1c0.1-0.8,0.8-1.4,1.6-1.4c0.3,0,0.6,0.1,0.8,0.2V2.2H0
		v8.2c0.1,0.2,0.1,0.4,0.1,0.6s0,0.4-0.1,0.6v18.4c0,0.1,0.1,0.3,0.1,0.4c0,0.2,0,0.3-0.1,0.4v7.4h123.5V21.3
		C123.2,21.6,122.9,21.7,122.5,21.7z M6,6c0.9,0,1.7,0.7,1.7,1.7S6.9,9.3,6,9.3S4.3,8.5,4.3,7.6S5.1,6,6,6z M6,35.2
		c-0.9,0-1.7-0.7-1.7-1.6c0-0.9,0.7-1.7,1.6-1.7c0.9,0,1.7,0.7,1.7,1.6C7.7,34.4,6.9,35.2,6,35.2z M13.2,5.5c0.9,0,1.7,0.7,1.7,1.7
		s-0.7,1.7-1.7,1.7s-1.7-0.7-1.7-1.7S12.3,5.5,13.2,5.5z M13.2,35.5c-0.9,0-1.7-0.7-1.7-1.6c0-0.9,0.7-1.7,1.6-1.7
		c0.9,0,1.7,0.7,1.7,1.6C14.9,34.7,14.1,35.5,13.2,35.5z M20.7,32c-0.9,0-1.7-0.7-1.7-1.6c0-0.9,0.7-1.7,1.6-1.7
		c0.9,0,1.7,0.7,1.7,1.6C22.3,31.2,21.6,32,20.7,32z M20.7,12.2c-0.9,0-1.7-0.7-1.7-1.7s0.7-1.7,1.7-1.7s1.7,0.7,1.7,1.7
		S21.6,12.2,20.7,12.2z M27,28.5c-0.9,0-1.7-0.7-1.7-1.6c0-0.9,0.7-1.7,1.6-1.7c0.9,0,1.7,0.7,1.7,1.6C28.6,27.8,27.9,28.5,27,28.5z
		 M27,15.5c-0.9,0-1.7-0.7-1.7-1.7s0.7-1.7,1.7-1.7s1.7,0.7,1.7,1.7S28,15.5,27,15.5z M32.2,22.3c-0.1,0-0.2,0-0.4,0
		c-0.9,0-1.6-0.7-1.6-1.6c0-0.4,0.1-0.7,0.3-1c0.1-0.8,0.7-1.3,1.5-1.4c0.1,0,0.2,0,0.4,0c0.9,0,1.7,0.7,1.7,1.7
		c0,0.3-0.1,0.7-0.3,0.9C33.8,21.7,33.1,22.3,32.2,22.3z M37.5,28.3c-0.9,0-1.7-0.7-1.7-1.6c0-0.9,0.7-1.7,1.6-1.7
		c0.9,0,1.7,0.7,1.7,1.6C39.2,27.6,38.4,28.3,37.5,28.3z M37.6,15.5c-0.9,0-1.7-0.7-1.7-1.7c0-0.9,0.7-1.7,1.7-1.7s1.7,0.7,1.7,1.7
		C39.3,14.7,38.5,15.5,37.6,15.5z M43.9,31.5c-0.9,0-1.7-0.7-1.7-1.6c0-0.9,0.7-1.7,1.6-1.7c0.9,0,1.7,0.7,1.7,1.6
		C45.6,30.7,44.9,31.5,43.9,31.5z M44,12.1c-0.9,0-1.7-0.7-1.7-1.7S43,8.8,44,8.8s1.7,0.7,1.7,1.7S44.9,12.1,44,12.1z M51.5,5.5
		c0.9,0,1.7,0.7,1.7,1.7s-0.7,1.7-1.7,1.7S49.8,8,49.8,7.1S50.6,5.5,51.5,5.5z M51.5,34.7c-0.9,0-1.7-0.7-1.7-1.6
		c0-0.9,0.7-1.7,1.6-1.7c0.9,0,1.7,0.7,1.7,1.6C53.2,33.9,52.4,34.7,51.5,34.7z M58.7,5c0.9,0,1.7,0.7,1.7,1.7
		c0,0.9-0.7,1.7-1.7,1.7c-0.9,0-1.7-0.7-1.7-1.7C57,5.7,57.8,5,58.7,5z M58.7,35c-0.9,0-1.7-0.7-1.7-1.6c0-0.9,0.7-1.7,1.6-1.7
		c0.9,0,1.7,0.7,1.7,1.6C60.4,34.2,59.7,35,58.7,35z M66.2,31.5c-0.9,0-1.7-0.7-1.7-1.6c0-0.9,0.7-1.7,1.6-1.7
		c0.9,0,1.7,0.7,1.7,1.6C67.8,30.7,67.1,31.5,66.2,31.5z M66.2,11.7c-0.9,0-1.7-0.7-1.7-1.7s0.7-1.7,1.7-1.7s1.7,0.7,1.7,1.7
		S67.1,11.7,66.2,11.7z M72.5,28c-0.9,0-1.7-0.7-1.7-1.6c0-0.9,0.7-1.7,1.6-1.7c0.9,0,1.7,0.7,1.7,1.6C74.1,27.3,73.4,28,72.5,28z
		 M72.5,15c-0.9,0-1.7-0.7-1.7-1.7s0.7-1.7,1.7-1.7s1.7,0.7,1.7,1.7S73.5,15,72.5,15z M77.3,22.2c-0.9,0-1.7-0.7-1.7-1.6
		c0-0.4,0.1-0.7,0.3-1c0-0.3,0.2-0.6,0.3-0.8c0.3-0.6,0.8-1,1.5-1c0.9,0,1.7,0.7,1.7,1.7c0,0.3-0.1,0.7-0.3,0.9
		c0,0.3-0.1,0.5-0.3,0.7C78.6,21.8,78,22.2,77.3,22.2z M82.5,28.2c-0.9,0-1.7-0.7-1.7-1.6c0-0.9,0.7-1.7,1.6-1.7
		c0.9,0,1.7,0.7,1.7,1.6C84.2,27.5,83.5,28.2,82.5,28.2z M82.6,15.4c-0.9,0-1.7-0.7-1.7-1.7s0.7-1.7,1.7-1.7s1.7,0.7,1.7,1.7
		S83.6,15.4,82.6,15.4z M89,31.4c-0.9,0-1.7-0.7-1.7-1.6c0-0.9,0.7-1.7,1.6-1.7s1.7,0.7,1.7,1.6C90.6,30.7,89.9,31.4,89,31.4z
		 M89,12c-0.9,0-1.7-0.7-1.7-1.7s0.7-1.7,1.7-1.7s1.7,0.7,1.7,1.7S89.9,12,89,12z M96.5,5.4c0.9,0,1.7,0.7,1.7,1.7s-0.7,1.7-1.7,1.7
		S94.8,8,94.8,7S95.6,5.4,96.5,5.4z M96.5,34.6c-0.9,0-1.7-0.7-1.7-1.6c0-0.9,0.7-1.7,1.6-1.7c0.9,0,1.7,0.7,1.7,1.6
		C98.2,33.8,97.5,34.6,96.5,34.6z M103.7,4.9c0.9,0,1.7,0.7,1.7,1.7s-0.7,1.7-1.7,1.7S102,7.5,102,6.6S102.8,4.9,103.7,4.9z
		 M103.8,34.9c-0.9,0-1.7-0.7-1.7-1.6c0-0.9,0.7-1.7,1.6-1.7c0.9,0,1.7,0.7,1.7,1.6C105.4,34.1,104.7,34.9,103.8,34.9z M111.2,31.4
		c-0.9,0-1.7-0.7-1.7-1.6c0-0.9,0.7-1.7,1.6-1.7c0.9,0,1.7,0.7,1.7,1.6C112.9,30.6,112.1,31.4,111.2,31.4z M111.2,11.6
		c-0.9,0-1.7-0.7-1.7-1.7s0.7-1.7,1.7-1.7c0.9,0,1.7,0.7,1.7,1.7S112.1,11.6,111.2,11.6z M117.5,28c-0.9,0-1.7-0.7-1.7-1.6
		c0-0.9,0.7-1.7,1.6-1.7c0.9,0,1.7,0.7,1.7,1.6C119.1,27.2,118.4,27.9,117.5,28z M117.6,14.9c-0.9,0-1.7-0.7-1.7-1.7
		s0.7-1.7,1.7-1.7s1.7,0.7,1.7,1.7S118.5,14.9,117.6,14.9z"/>
	<rect class="st1" width="123.5" height="2.2"/>
	<rect y="38.2" class="st1" width="123.5" height="2.2"/>
	<path class="st1" d="M33.5,21.2c-0.2,0.6-0.8,1.1-1.5,1.1c0,0-0.1,0-0.1,0c0.1,0,0.2,0,0.4,0c0.8,0,1.5-0.7,1.6-1.5
		C33.8,21,33.6,21.1,33.5,21.2z"/>
	<circle class="st1" cx="37.5" cy="26.7" r="1.7"/>
	<circle class="st1" cx="43.9" cy="29.9" r="1.7"/>
	<circle class="st1" cx="51.5" cy="33" r="1.7"/>
	<path class="st1" d="M79,20.5c0,0.1-0.1,0.2-0.1,0.3c0,0.1,0,0.2-0.1,0.4C78.9,20.9,79,20.7,79,20.5C79.1,20.4,79,20.5,79,20.5z"/>
	<circle class="st1" cx="72.4" cy="26.4" r="1.7"/>
	<circle class="st1" cx="66.1" cy="29.8" r="1.7"/>
	<circle class="st1" cx="58.7" cy="33.3" r="1.7"/>
	<path class="st1" d="M32.5,18.2c-0.1,0-0.3,0-0.4,0c0,0,0.1,0,0.1,0c0.9,0,1.7,0.7,1.7,1.7c0,0.3-0.1,0.7-0.3,0.9
		c0,0.1,0,0.2-0.1,0.3c0.1-0.1,0.3-0.2,0.4-0.4c0.2-0.3,0.3-0.6,0.3-0.9C34.1,19,33.4,18.2,32.5,18.2z"/>
	<circle class="st1" cx="37.6" cy="13.8" r="1.7"/>
	<circle class="st1" cx="44" cy="10.5" r="1.7"/>
	<circle class="st1" cx="51.5" cy="7.1" r="1.7"/>
	<path class="st1" d="M77.5,18.2c0.9,0,1.7,0.7,1.7,1.7c0,0.2,0,0.5-0.1,0.7c0,0,0.1-0.1,0.1-0.1c0.2-0.3,0.3-0.6,0.3-0.9
		c0-0.9-0.7-1.7-1.7-1.7c-0.7,0-1.3,0.4-1.5,1C76.5,18.4,76.9,18.2,77.5,18.2z"/>
	<circle class="st1" cx="72.5" cy="13.3" r="1.7"/>
	<circle class="st1" cx="66.2" cy="10" r="1.7"/>
	<circle class="st1" cx="58.7" cy="6.7" r="1.7"/>
	<path class="st1" d="M0,29.9v0.8c0-0.1,0.1-0.3,0.1-0.4C0.1,30.2,0,30.1,0,29.9z"/>
	<circle class="st1" cx="6" cy="33.5" r="1.7"/>
	<path class="st1" d="M33.5,21.2c0-0.1,0.1-0.2,0.1-0.3c-0.3,0.4-0.8,0.7-1.4,0.7c-0.9,0-1.7-0.7-1.7-1.7c0-0.1,0-0.2,0-0.2
		c-0.2,0.3-0.3,0.6-0.3,1c0,0.9,0.7,1.6,1.6,1.6c0,0,0.1,0,0.1,0C32.7,22.3,33.3,21.8,33.5,21.2z"/>
	<circle class="st1" cx="26.9" cy="26.9" r="1.7"/>
	<circle class="st1" cx="20.6" cy="30.3" r="1.7"/>
	<circle class="st1" cx="13.2" cy="33.8" r="1.7"/>
	<path class="st1" d="M0,10.3v1.2c0.1-0.2,0.1-0.4,0.1-0.6S0.1,10.5,0,10.3z"/>
	<circle class="st1" cx="6" cy="7.6" r="1.7"/>
	<path class="st1" d="M32.2,21.6c0.6,0,1.1-0.3,1.4-0.7c0.2-0.3,0.3-0.6,0.3-0.9c0-0.9-0.7-1.7-1.7-1.7c0,0-0.1,0-0.1,0
		c-0.8,0.1-1.4,0.6-1.5,1.4c0,0.1,0,0.2,0,0.2C30.5,20.9,31.3,21.6,32.2,21.6z"/>
	<circle class="st1" cx="27" cy="13.8" r="1.7"/>
	<circle class="st1" cx="20.7" cy="10.5" r="1.7"/>
	<circle class="st1" cx="13.2" cy="7.2" r="1.7"/>
	<path class="st1" d="M77.5,21.5c-0.9,0-1.7-0.7-1.7-1.7c0-0.1,0-0.1,0-0.2c-0.2,0.3-0.3,0.6-0.3,1c0,0.9,0.8,1.7,1.7,1.6
		c0.7,0,1.3-0.5,1.5-1.1c0-0.1,0.1-0.2,0.1-0.4C78.6,21.2,78.1,21.5,77.5,21.5z"/>
	<circle class="st1" cx="82.5" cy="26.6" r="1.7"/>
	<circle class="st1" cx="88.9" cy="29.8" r="1.7"/>
	<circle class="st1" cx="96.5" cy="32.9" r="1.7"/>
	<path class="st1" d="M121.1,19.4c0-0.1,0-0.2,0-0.2c-0.2,0.3-0.3,0.6-0.3,1c0,0.9,0.8,1.7,1.7,1.6c0.4,0,0.7-0.2,1-0.4v-0.5
		c-0.2,0.1-0.5,0.2-0.8,0.2C121.8,21,121.1,20.3,121.1,19.4z"/>
	<circle class="st1" cx="117.4" cy="26.3" r="1.7"/>
	<circle class="st1" cx="111.2" cy="29.8" r="1.7"/>
	<circle class="st1" cx="103.7" cy="33.3" r="1.7"/>
	<path class="st1" d="M75.8,19.8c0,0.9,0.7,1.7,1.7,1.7c0.6,0,1.1-0.3,1.4-0.7c0.1-0.1,0.1-0.2,0.1-0.3c0.1-0.2,0.1-0.4,0.1-0.7
		c0-0.9-0.7-1.7-1.7-1.7c-0.5,0-1,0.3-1.3,0.6c-0.2,0.2-0.3,0.5-0.3,0.8C75.8,19.7,75.8,19.8,75.8,19.8z"/>
	<circle class="st1" cx="82.6" cy="13.7" r="1.7"/>
	<circle class="st1" cx="89" cy="10.4" r="1.7"/>
	<circle class="st1" cx="96.5" cy="7" r="1.7"/>
	<path class="st1" d="M121.1,19.1c0,0.1,0,0.2,0,0.2c0,0.9,0.7,1.7,1.7,1.7c0.3,0,0.6-0.1,0.8-0.2v-2.9c-0.2-0.1-0.5-0.2-0.8-0.2
		C121.9,17.7,121.2,18.3,121.1,19.1z"/>
	<circle class="st1" cx="117.6" cy="13.2" r="1.7"/>
	<circle class="st1" cx="111.2" cy="9.9" r="1.7"/>
	<circle class="st1" cx="103.7" cy="6.6" r="1.7"/>
</g>
</svg>
