<?xml version="1.0" encoding="utf-8"?>
<!-- Generator: Adobe Illustrator 19.1.0, SVG Export Plug-In . SVG Version: 6.00 Build 0)  -->
<svg version="1.1" id="Layer_1" xmlns="http://www.w3.org/2000/svg" xmlns:xlink="http://www.w3.org/1999/xlink" x="0px" y="0px"
	 viewBox="0 0 158.7 58.2" style="enable-background:new 0 0 158.7 58.2;" xml:space="preserve">
<style type="text/css">
	.st0{fill:#6FC7AE;}
	.st1{fill:none;stroke:#6FC7AE;stroke-width:2;stroke-miterlimit:10;}
	.st2{fill:#8C439A;}
</style>
<g>
	<path class="st0" d="M109.2,29.2c0-1.9,0.3-3.6,1-5c1.6-3.2,4.9-5.1,10-5.1c7.2,0,12,4.1,15.1,6.9s3.8,8.5,2.8,13.6
		s-3.8,6.3-7.6,7.5c-3.8,1.3-14.5,0-18-4.4S109.2,29.2,109.2,29.2z"/>
	<path class="st1" d="M112.2,24.5c0,0-4.2-2-4.7-1s0.2,8.2-1,8s-3-1.2-2.8-2.2s1.2-4.8,0-5s-2.7-1.5-2.7,0s0.6,5,0,5s-3-2.1-3.1-2.6
		s0.9-2.1-0.6-2s-2.4,0.9-2.6,0.4s1.9-1.8,1.9-1.8h-6.4"/>
	<path class="st2" d="M112.2,30c0-5,3-8,8.8-8s9.5,3.2,12,5.5s3,6.8,2.2,10.8s-3,5-6,6s-11.5,0-14.2-3.5S112.2,30,112.2,30z"/>
</g>
<g>
	<path class="st0" d="M30,46.8c0.2,1.9,0.1,3.6-0.5,5.1c-1.2,3.4-4.3,5.6-9.4,6.2C13,58.9,7.9,55.4,4.4,52.9s-4.7-8.1-4.3-13.2
		s3.1-6.7,6.7-8.3s14.4-1.6,18.3,2.4S30,46.8,30,46.8z"/>
	<path class="st1" d="M27.5,51.8c0,0,4.4,1.5,4.8,0.5c0.4-1.1-1.2-8.2,0.1-8.1c1.3,0.1,3.1,0.9,3,1.9c-0.1,1-0.7,4.9,0.6,5
		s2.9,1.2,2.7-0.3c-0.2-1.5-1.2-4.9-0.6-5c0.6-0.1,3.2,1.8,3.4,2.3c0.2,0.5-0.6,2.2,0.8,1.9c1.5-0.3,2.3-1.1,2.6-0.7
		c0.3,0.5-1.7,2-1.7,2l6.3-0.7"/>
	<path class="st2" d="M26.9,46.3c0.6,5-2.1,8.3-7.8,8.9s-9.8-2.2-12.5-4.1s-3.7-6.4-3.4-10.4s2.4-5.3,5.3-6.6s11.4-1.3,14.6,1.9
		C26.1,39.1,26.9,46.3,26.9,46.3z"/>
</g>
<path class="st0" d="M41.9,44.6l4.3-3.1l15.5-12l-1.8-3.8l54.3-9.4l20.2,8.5c0,0,1.8-0.2,9.8,1.2c8,1.5,11.5,2.3,13.2,0
	s1.5-7.5,0-12.7s-5.2-12.8-7-13.2s-33.2,13.8-38.2,14.8s-39.3-0.4-39.3-0.4S61.7,15,56.2,15.3s-15.8-1.2-24.5-2s-9.5,0-10,2.2
	S21,29,27,35.3S41.9,44.6,41.9,44.6"/>
<path class="st2" d="M91,12.8c1,0,9.5,0.2,23.2-1.8s28.8-8.5,33.2-7s6,5.8,6.5,11s-2.8,8.8-3,8.2s-3.5,0.1-9.8,0s-17-4.5-24.5-4.3
	s-8.8-0.2-30.2,2.5s-57.7,10-57.7,10s-4.2-8.2-4.2-11.8s1.2-5,4.2-4.8S48,18,55,17.7c7-0.4,13.2-2.9,19.2-3.4S91,12.8,91,12.8z"/>
<path class="st2" d="M57,28c0,0,16.5-2.2,24.5-2s15.5,3,19.2,5.5s6.5,4.5,6.5,5.8s2,3.8-5,5s-30.2,9-42.5,8.2S33,39.3,32,38.3
	c-1-1-4.5-4.3,0-4.3S57,28,57,28z"/>
</svg>
