<?xml version="1.0" encoding="utf-8"?>
<!-- Generator: Adobe Illustrator 19.1.0, SVG Export Plug-In . SVG Version: 6.00 Build 0)  -->
<svg version="1.1" id="Layer_1" xmlns="http://www.w3.org/2000/svg" xmlns:xlink="http://www.w3.org/1999/xlink" x="0px" y="0px"
	 viewBox="0 0 500 327" style="enable-background:new 0 0 500 327;" xml:space="preserve">
<style type="text/css">
	.st0{fill:none;}
	.st1{fill:#1476A8;}
	.st2{fill:#9AA539;}
</style>
<path class="st0" d="M158.7,123.8c21,14.6,40.9,28.3,58.3,38.3c21.5,12.4,31.2,14.2,35,14.2c3.9,0,16.5-1.9,48.6-19.5
	c23.5-12.9,50.5-30.2,76.5-47C438.6,70.3,475,47.8,500,48.3V0H256.3c0,0,27.5,5.5,44.8,13.2l0,0c0,0,0,0,0,0
	c0.4,0.2,0.9,0.4,1.3,0.6c0,0,0.1,0,0.1,0.1c0.4,0.2,0.7,0.4,1.1,0.5c0.1,0,0.1,0.1,0.2,0.1c0.8,0.4,1.5,0.8,2.3,1.2
	c0.1,0,0.2,0.1,0.2,0.1c0.3,0.2,0.6,0.3,0.9,0.5c0.1,0,0.1,0.1,0.2,0.1c0.3,0.2,0.7,0.4,1,0.6c0.1,0,0.1,0.1,0.2,0.1
	c0.2,0.2,0.5,0.3,0.7,0.5c0.1,0.1,0.2,0.1,0.2,0.2c0.3,0.2,0.6,0.4,0.8,0.6c0.4,0.3,0.8,0.6,1.2,1c0.8,0.7,1.5,1.4,2.2,2.1
	c1,1.1,1.9,2.3,2.7,3.5c2.3,3.6,3.6,7.6,4.2,11.4c0.1,0.4,0.1,0.8,0.2,1.3c0.1,1.3,0.2,2.5,0.2,3.7c0,5.1-1.3,9.4-2.9,11.3
	c-0.4,0.4-0.7,0.8-1.1,1.2c-0.2,0.3-0.5,0.5-0.7,0.8c-0.2,0.2-0.5,0.5-0.8,0.7s-0.5,0.4-0.8,0.6c-0.3,0.2-0.6,0.4-0.9,0.5
	c-1.1,0.6-2.5,0.9-4.2,0.9c-0.5,0-1,0-1.6,0c-0.9-0.1-1.8-0.2-2.9-0.4c-3.2-0.6-7.2-1.8-12.6-3.7c0,0,0,0,0,0
	c-0.4-0.2-0.8-0.3-1.3-0.5c-0.1,0-0.2-0.1-0.3-0.1c-0.4-0.2-0.8-0.4-1.2-0.6c-0.1,0-0.1-0.1-0.2-0.1c-0.4-0.2-0.7-0.4-1.1-0.7
	c-0.1,0-0.2-0.1-0.2-0.1c-0.4-0.3-0.8-0.6-1.2-0.9c-0.1-0.1-0.2-0.1-0.2-0.2c-0.4-0.3-0.8-0.6-1.1-0.9c0,0-0.1-0.1-0.1-0.1
	c-0.4-0.3-0.8-0.7-1.2-1.1c-0.1-0.1-0.2-0.1-0.2-0.2c-0.4-0.4-0.8-0.8-1.2-1.2c0,0,0,0,0,0c-0.4-0.4-0.8-0.8-1.2-1.2
	c-0.1-0.1-0.1-0.1-0.2-0.2c-0.4-0.4-0.8-0.9-1.2-1.3c0-0.1-0.1-0.1-0.1-0.2c-0.4-0.4-0.8-0.9-1.1-1.4c0,0,0-0.1-0.1-0.1
	c-0.4-0.5-0.8-1-1.2-1.5c0-0.1-0.1-0.1-0.1-0.2c-0.8-1-1.6-2.1-2.3-3.2c0,0-0.1-0.1-0.1-0.1C264.1,21.1,256.3,0,256.3,0h-48.9
	c0,0-4.9,13.3-12.5,26.6c0,0,0,0,0,0c-0.4,0.8-0.9,1.5-1.3,2.3c0,0,0,0,0,0.1c-0.4,0.7-0.9,1.5-1.3,2.2c0,0,0,0.1-0.1,0.1
	c-0.4,0.7-0.9,1.4-1.4,2.2c0,0,0,0.1-0.1,0.1c-0.5,0.7-0.9,1.4-1.4,2.1c0,0-0.1,0.1-0.1,0.1c-0.5,0.7-0.9,1.4-1.4,2
	c0,0-0.1,0.1-0.1,0.1c-0.5,0.7-1,1.3-1.4,2c0,0-0.1,0.1-0.1,0.1c-0.5,0.6-1,1.3-1.5,1.9c0,0-0.1,0.1-0.1,0.1c-0.5,0.6-1,1.2-1.5,1.8
	c0,0-0.1,0.1-0.1,0.1c-0.5,0.6-1,1.1-1.5,1.7c0,0-0.1,0.1-0.1,0.1c-0.5,0.5-1,1-1.6,1.5c0,0-0.1,0.1-0.1,0.1c-0.5,0.5-1.1,1-1.6,1.4
	c0,0-0.1,0.1-0.1,0.1c-0.5,0.4-1.1,0.9-1.6,1.3c0,0-0.1,0-0.1,0.1c-0.5,0.4-1.1,0.8-1.7,1.1c0,0,0,0-0.1,0c-0.6,0.3-1.1,0.7-1.7,0.9
	c0,0,0,0,0,0c-0.6,0.3-1.2,0.5-1.7,0.7c0,0,0,0,0,0c-5.4,2-9.4,3.2-12.6,3.7c-1.1,0.2-2,0.3-2.9,0.4c-0.6,0-1.1,0.1-1.6,0
	c-1.8,0-3.1-0.4-4.2-0.9c-0.3-0.2-0.6-0.3-0.9-0.5c-0.3-0.2-0.6-0.4-0.8-0.6c-0.3-0.2-0.5-0.5-0.8-0.7c-0.2-0.2-0.5-0.5-0.7-0.8
	c-0.4-0.4-0.7-0.8-1.1-1.2c-1.6-1.9-2.8-6.1-2.9-11.3c0-1.2,0.1-2.4,0.2-3.7c0-0.4,0.1-0.8,0.2-1.3c0.6-3.8,1.9-7.8,4.2-11.4
	c0.8-1.2,1.7-2.4,2.7-3.5c0.7-0.7,1.4-1.4,2.2-2.1c0.4-0.3,0.8-0.7,1.2-1c0.3-0.3,0.7-0.5,1.1-0.8c0.1,0,0.1-0.1,0.2-0.1
	c0.4-0.2,0.7-0.5,1.1-0.7c0.1,0,0.1-0.1,0.2-0.1c0.4-0.2,0.8-0.5,1.2-0.7c0.1,0,0.1-0.1,0.2-0.1c0.4-0.2,0.9-0.5,1.4-0.7
	c0,0,0.1,0,0.1,0c0.5-0.2,1-0.5,1.4-0.7c0,0,0.1,0,0.1-0.1c0.5-0.2,1-0.5,1.5-0.7c0.1,0,0.2-0.1,0.2-0.1c0.5-0.2,1-0.5,1.5-0.7
	c0.1,0,0.2-0.1,0.2-0.1c0.5-0.2,1.1-0.5,1.6-0.7c0,0,0.1,0,0.1-0.1c1.2-0.5,2.4-0.9,3.6-1.4c0.1,0,0.1,0,0.2-0.1
	c0.6-0.2,1.2-0.4,1.8-0.7c0.1,0,0.1,0,0.2-0.1c0.6-0.2,1.2-0.4,1.9-0.6c0,0,0.1,0,0.1,0c2-0.7,4-1.3,6-1.9c0,0,0,0,0,0
	c14.2-4.3,28-7.1,28-7.1H0v48.4C46.9,46.5,103.7,85.8,158.7,123.8z M212.2,61.7c0-0.6,0.1-1.3,0.2-2c0-0.2,0.1-0.4,0.1-0.6
	c0.1-0.5,0.2-1.1,0.3-1.7c0-0.2,0.1-0.4,0.1-0.6c0.2-0.8,0.3-1.5,0.5-2.3c0,0,0,0,0-0.1c0.2-0.8,0.4-1.6,0.7-2.4
	c0.1-0.2,0.1-0.4,0.2-0.6c0.2-0.7,0.4-1.5,0.7-2.2c0-0.1,0.1-0.3,0.1-0.4c0.6-1.8,1.2-3.7,1.9-5.5c0-0.1,0.1-0.2,0.1-0.3
	c6.2-16.5,16.1-34.2,16.1-34.2s9.4,16.7,14.7,33.9l0,0c0,0,0,0,0,0c0.2,0.6,0.4,1.2,0.5,1.8c0,0.1,0.1,0.2,0.1,0.4
	c0.2,0.6,0.3,1.2,0.5,1.7c0,0,0,0,0,0c0.2,0.6,0.3,1.2,0.5,1.7c0,0.1,0.1,0.3,0.1,0.4c0.1,0.6,0.3,1.1,0.4,1.7c0,0,0,0,0,0
	c0.1,0.6,0.2,1.1,0.4,1.7c0,0.1,0.1,0.3,0.1,0.4c0.1,0.6,0.2,1.1,0.3,1.7c0,0,0,0,0,0c0.1,0.6,0.2,1.1,0.3,1.7c0,0.1,0,0.3,0.1,0.4
	c0.1,0.5,0.1,1.1,0.2,1.6c0,0,0,0,0,0c0.1,0.5,0.1,1.1,0.1,1.6c0,0.1,0,0.3,0,0.4c0,0.5,0.1,1,0.1,1.5c0,0,0,0,0,0c0,0.5,0,1,0,1.5
	c0,0.1,0,0.2,0,0.4c0,0.5,0,1-0.1,1.5c0,0,0,0,0,0c0,0.5-0.1,0.9-0.1,1.4c0,0.1,0,0.2,0,0.3c-0.1,0.5-0.1,0.9-0.2,1.4c0,0,0,0,0,0
	c-0.1,0.4-0.2,0.9-0.3,1.3c0,0.1-0.1,0.2-0.1,0.3c-0.1,0.4-0.2,0.8-0.4,1.2c0,0,0,0,0,0c-2.4,6.6-4.5,10.9-6.4,13.7
	c-3.6,5.4-6.7,5.4-10.6,5.4C227.2,89.7,211.2,78.7,212.2,61.7z"/>
<path class="st0" d="M485.3,276.2c0-0.1-0.1-0.2-0.1-0.3c-0.7-1.9-1.4-3.7-1.9-5.6c0-0.1-0.1-0.3-0.1-0.4c-0.2-0.7-0.5-1.5-0.7-2.2
	c-0.1-0.2-0.1-0.4-0.2-0.6c-0.2-0.8-0.5-1.6-0.7-2.4c0,0,0,0,0,0c-0.2-0.8-0.4-1.6-0.5-2.3c0-0.2-0.1-0.4-0.1-0.6
	c-0.1-0.6-0.2-1.1-0.3-1.7c0-0.2-0.1-0.4-0.1-0.6c-0.1-0.7-0.2-1.4-0.2-2c-0.9-15.8,12.9-26.4,19.6-27.8v-65.4l-1.2,23
	c0.2,0,0.3,0,0.3,0c-1.3,0.1-9,1.1-34.3,15.3c-18.4,10.4-39.9,24.3-62.8,39c-69.3,44.6-117.2,73.8-150,73.8
	c-31.7,0-72.4-28.1-119.5-60.7C88,223.7,32.7,185.4,1.3,187.2l-1.3-23v73.3c0.5-0.1,1-0.2,1.4-0.2h0l0,0c6,0,10,0,17,19.1
	c0,0,0,0,0,0c0.1,0.4,0.3,0.8,0.4,1.2c0,0.1,0.1,0.2,0.1,0.3c0.1,0.4,0.2,0.8,0.3,1.3c0,0,0,0,0,0c0.1,0.4,0.2,0.9,0.2,1.3
	c0,0.1,0,0.2,0,0.3c0.1,0.5,0.1,0.9,0.1,1.4c0,0,0,0,0,0c0,0.5,0.1,1,0.1,1.4c0,0.1,0,0.2,0,0.4c0,0.5,0,1,0,1.5c0,0,0,0,0,0
	c0,0.5,0,1-0.1,1.5c0,0.1,0,0.3,0,0.4c0,0.5-0.1,1.1-0.1,1.6c0,0,0,0,0,0c-0.1,0.5-0.1,1.1-0.2,1.6c0,0.1,0,0.3-0.1,0.4
	c-0.1,0.5-0.2,1.1-0.3,1.7c0,0,0,0,0,0c-0.1,0.5-0.2,1.1-0.3,1.7c0,0.1-0.1,0.3-0.1,0.4c-0.1,0.6-0.2,1.1-0.4,1.7c0,0,0,0,0,0
	c-0.1,0.6-0.3,1.1-0.4,1.7c0,0.1-0.1,0.3-0.1,0.4c-0.1,0.6-0.3,1.2-0.5,1.7c0,0,0,0,0,0c-0.2,0.6-0.3,1.1-0.5,1.7
	c0,0.1-0.1,0.3-0.1,0.4c-0.2,0.6-0.3,1.2-0.5,1.7c0,0,0,0,0,0h0c-5.3,17.2-14.7,33.9-14.7,33.9s-0.5-0.9-1.4-2.6v36.4h500v-44.3
	C497.1,302.4,490.1,288.9,485.3,276.2z M89.1,285.9c0,0.8,0,1.5-0.1,2.3c-0.1,0.8-0.1,1.7-0.3,2.6c-0.1,0.5-0.2,1-0.3,1.5
	c-0.1,0.7-0.3,1.3-0.5,2c-0.1,0.2-0.1,0.5-0.2,0.7c-0.3,1-0.6,2-1,2.9c-0.6,1.4-1.3,2.9-2.2,4.2c-0.8,1.2-1.7,2.4-2.7,3.5
	c-0.7,0.7-1.4,1.4-2.2,2.1c-0.4,0.3-0.8,0.7-1.2,1c-0.3,0.2-0.5,0.4-0.8,0.6c-0.1,0.1-0.2,0.1-0.2,0.2c-0.2,0.2-0.5,0.3-0.7,0.5
	c-0.1,0-0.1,0.1-0.2,0.1c-0.3,0.2-0.6,0.4-1,0.6c-0.1,0-0.1,0.1-0.2,0.1c-0.3,0.2-0.6,0.3-0.9,0.5c-0.1,0-0.2,0.1-0.2,0.1
	c-0.7,0.4-1.5,0.8-2.3,1.2c-0.1,0-0.1,0.1-0.2,0.1c-0.4,0.2-0.7,0.4-1.1,0.5c0,0-0.1,0-0.1,0.1c-0.4,0.2-0.9,0.4-1.3,0.6
	c0,0,0,0,0,0l0,0C52,321.5,24.4,327,24.4,327s6.2-16.8,15.4-31.6l0,0c0,0,0,0,0,0c1.1-1.8,2.3-3.6,3.5-5.3c0,0,0.1-0.1,0.1-0.1
	c0.8-1.1,1.5-2.2,2.3-3.2c0-0.1,0.1-0.1,0.1-0.2c0.4-0.5,0.8-1,1.2-1.5c0,0,0-0.1,0.1-0.1c0.4-0.5,0.8-0.9,1.1-1.4
	c0-0.1,0.1-0.1,0.1-0.2c0.4-0.5,0.8-0.9,1.2-1.3c0.1-0.1,0.1-0.1,0.2-0.2c0.4-0.4,0.8-0.8,1.2-1.2c0,0,0,0,0,0
	c0.4-0.4,0.8-0.8,1.2-1.2c0.1-0.1,0.2-0.1,0.2-0.2c0.4-0.4,0.8-0.7,1.2-1.1c0,0,0.1-0.1,0.1-0.1c0.4-0.3,0.8-0.6,1.1-0.9
	c0.1-0.1,0.2-0.1,0.2-0.2c0.4-0.3,0.8-0.6,1.2-0.9c0.1,0,0.2-0.1,0.2-0.1c0.4-0.2,0.7-0.5,1.1-0.7c0.1,0,0.1-0.1,0.2-0.1
	c0.4-0.2,0.8-0.4,1.2-0.6c0.1,0,0.2-0.1,0.3-0.1c0.4-0.2,0.8-0.4,1.3-0.5c0,0,0,0,0,0c5.4-2,9.4-3.2,12.6-3.7c1.1-0.2,2-0.3,2.9-0.4
	c0.6,0,1.1-0.1,1.6,0c0.3,0,0.5,0,0.7,0c0.5,0,0.9,0.1,1.3,0.2c0.8,0.2,1.5,0.4,2.2,0.7c0.3,0.2,0.6,0.3,0.9,0.5
	c0.3,0.2,0.6,0.4,0.8,0.6s0.5,0.5,0.8,0.7c0.2,0.2,0.5,0.5,0.7,0.8c0.4,0.4,0.7,0.8,1.1,1.2C87.8,276.5,89,280.8,89.1,285.9
	C89.1,285.9,89.1,285.9,89.1,285.9z M421.6,300.8c-2.1-1.6-3.9-3.4-5.3-5.4c-2.8-3.9-4.4-8.3-5-12.6c-0.3-1.7-0.4-3.3-0.3-4.9
	c0-5.1,1.3-9.4,2.9-11.3c0.4-0.4,0.7-0.8,1.1-1.2c0.2-0.3,0.5-0.5,0.7-0.8c0.2-0.2,0.5-0.5,0.8-0.7s0.5-0.4,0.8-0.6
	c0.3-0.2,0.6-0.4,0.9-0.5c0.5-0.2,1-0.4,1.6-0.6c0.2-0.1,0.4-0.1,0.7-0.1c0.4-0.1,0.8-0.1,1.2-0.2c0.3,0,0.5,0,0.8,0
	c3.5-0.1,8.7,1.1,17.1,4.2c0,0,0,0,0,0c0.6,0.2,1.2,0.5,1.7,0.7c0,0,0,0,0,0c0.6,0.3,1.1,0.6,1.7,0.9c0,0,0,0,0.1,0
	c0.6,0.3,1.1,0.7,1.7,1.1c0,0,0.1,0,0.1,0.1c0.5,0.4,1.1,0.8,1.6,1.3c0,0,0.1,0.1,0.1,0.1c0.5,0.4,1.1,0.9,1.6,1.4
	c0,0,0.1,0.1,0.1,0.1c0.5,0.5,1,1,1.6,1.5c0,0,0.1,0.1,0.1,0.1c0.5,0.5,1,1.1,1.5,1.7c0,0,0.1,0.1,0.1,0.1c0.5,0.6,1,1.2,1.5,1.8
	c0,0,0.1,0.1,0.1,0.1c0.5,0.6,1,1.2,1.5,1.9c0,0,0.1,0.1,0.1,0.1c0.5,0.6,1,1.3,1.4,1.9c0,0,0.1,0.1,0.1,0.1c0.5,0.7,0.9,1.3,1.4,2
	c0,0,0.1,0.1,0.1,0.1c0.5,0.7,0.9,1.4,1.4,2.1c0,0,0,0.1,0.1,0.1c0.5,0.7,0.9,1.4,1.4,2.2c0,0,0,0.1,0.1,0.1
	c0.5,0.7,0.9,1.5,1.3,2.2c0,0,0,0,0,0.1c0.4,0.8,0.9,1.5,1.3,2.3c0,0,0,0,0,0c0.4,0.8,0.8,1.5,1.3,2.3c0,0,0,0,0,0l0,0
	c6.8,12.6,11.2,24.4,11.2,24.4s-13.8-2.7-28-7.1c0,0,0,0,0,0c-2-0.6-4-1.2-6-1.9c0,0-0.1,0-0.1,0c-0.6-0.2-1.2-0.4-1.9-0.6
	c-0.1,0-0.1,0-0.2-0.1c-0.6-0.2-1.2-0.4-1.8-0.7c-0.1,0-0.1,0-0.2-0.1c-1.2-0.5-2.4-0.9-3.6-1.4c0,0-0.1,0-0.1,0
	c-0.6-0.2-1.1-0.5-1.6-0.7c-0.1,0-0.2-0.1-0.2-0.1c-0.5-0.2-1-0.5-1.6-0.7c-0.1,0-0.2-0.1-0.2-0.1c-0.5-0.2-1-0.5-1.5-0.7
	c0,0-0.1,0-0.1-0.1c-0.5-0.2-1-0.5-1.5-0.7c0,0-0.1,0-0.1,0c-0.5-0.2-0.9-0.5-1.4-0.7c-0.1,0-0.1-0.1-0.2-0.1
	c-0.4-0.2-0.8-0.5-1.2-0.7c-0.1,0-0.1-0.1-0.2-0.1c-0.4-0.2-0.8-0.5-1.1-0.7c-0.1,0-0.1-0.1-0.1-0.1
	C422.3,301.3,421.9,301,421.6,300.8z"/>
<path class="st0" d="M158.7,216.7c21,14.6,40.9,28.3,58.3,38.3c21.5,12.4,31.2,14.2,35,14.2c3.9,0,16.5-1.9,48.6-19.5
	c23.5-12.9,50.5-30.2,76.5-47c61.5-39.5,97.8-62.1,122.9-61.6V71.3l-1.2,23c0.2,0,0.3,0,0.3,0c-1.3,0.1-9,1.1-34.3,15.3
	c-18.4,10.4-39.9,24.3-62.8,39c-69.3,44.6-117.2,73.8-150,73.8c-31.7,0-72.4-28.1-119.5-60.7C88,130.9,32.7,92.6,1.3,94.4L0,71.4
	v69.8C46.9,139.4,103.7,178.7,158.7,216.7z"/>
<path class="st1" d="M132.5,161.7c47.1,32.6,87.8,60.7,119.5,60.7c32.8,0,80.7-29.2,150-73.8c22.9-14.7,44.4-28.6,62.8-39
	c25.2-14.2,33-15.2,34.3-15.3c0,0-0.1,0-0.3,0l1.2-23v-23c-25-0.5-61.4,22-122.9,61.6c-26,16.8-53,34.1-76.5,47
	c-32.1,17.6-44.7,19.5-48.6,19.5c-3.8,0-13.5-1.9-35-14.2c-17.4-10-37.3-23.8-58.3-38.3C103.7,85.8,46.9,46.5,0,48.4v23l1.3,23
	C32.7,92.6,88,130.9,132.5,161.7z"/>
<path class="st1" d="M132.5,254.5c47.1,32.6,87.8,60.7,119.5,60.7c32.8,0,80.7-29.2,150-73.8c22.9-14.7,44.4-28.6,62.8-39
	c25.2-14.2,33-15.2,34.3-15.3c0,0-0.1,0-0.3,0l1.2-23v-23c-25-0.6-61.4,22-122.9,61.6c-26,16.8-53,34.1-76.5,47
	c-32.1,17.6-44.7,19.5-48.6,19.5c-3.8,0-13.5-1.9-35-14.2c-17.4-10-37.3-23.8-58.3-38.3c-55-38-111.8-77.3-158.7-75.5v23l1.3,23
	C32.7,185.4,88,223.7,132.5,254.5z"/>
<path class="st2" d="M271.7,31.6c11.3-6.1,21.1-12.4,29.4-18.5C283.8,5.5,256.3,0,256.3,0s7.8,21.1,18.8,36.9
	C273.9,35.2,272.8,33.4,271.7,31.6z"/>
<path class="st2" d="M313.7,21.4c-0.7-0.7-1.4-1.4-2.2-2.1C312.3,19.9,313,20.6,313.7,21.4z"/>
<path class="st2" d="M280.1,43.4c-0.4-0.4-0.8-0.9-1.1-1.4C279.3,42.5,279.7,42.9,280.1,43.4z"/>
<path class="st2" d="M277.6,40.2c-0.8-1-1.6-2.1-2.3-3.2C276,38.1,276.8,39.2,277.6,40.2z"/>
<path class="st2" d="M282.8,46.3c-0.4-0.4-0.8-0.8-1.2-1.2C282,45.5,282.4,45.9,282.8,46.3z"/>
<path class="st2" d="M281.4,44.8c-0.4-0.4-0.8-0.9-1.2-1.3C280.6,44,281,44.4,281.4,44.8z"/>
<path class="st2" d="M284,47.5c-0.4-0.4-0.8-0.8-1.2-1.2C283.2,46.7,283.6,47.1,284,47.5z"/>
<path class="st2" d="M189.3,35.8c-0.5,0.7-0.9,1.4-1.4,2C188.4,37.2,188.8,36.5,189.3,35.8z"/>
<path class="st2" d="M187.8,38c-0.5,0.7-1,1.3-1.4,2C186.8,39.3,187.3,38.6,187.8,38z"/>
<path class="st2" d="M194.9,26.7c-0.4,0.8-0.9,1.5-1.3,2.3C194.1,28.2,194.5,27.4,194.9,26.7z"/>
<path class="st2" d="M285.5,48.8c-0.4-0.3-0.8-0.7-1.2-1.1C284.7,48.1,285.1,48.4,285.5,48.8z"/>
<path class="st2" d="M190.8,33.6c-0.5,0.7-0.9,1.4-1.4,2.1C189.9,35,190.3,34.3,190.8,33.6z"/>
<path class="st2" d="M193.6,29c-0.4,0.7-0.9,1.5-1.3,2.2C192.7,30.5,193.2,29.7,193.6,29z"/>
<path class="st2" d="M192.2,31.3c-0.4,0.7-0.9,1.4-1.4,2.2C191.3,32.7,191.8,32,192.2,31.3z"/>
<path class="st2" d="M303.8,14.4c0.8,0.4,1.5,0.8,2.3,1.2C305.3,15.2,304.6,14.8,303.8,14.4z"/>
<path class="st2" d="M307.3,16.3c0.3,0.2,0.7,0.4,1,0.6C308,16.7,307.7,16.5,307.3,16.3z"/>
<path class="st2" d="M308.5,17c0.2,0.2,0.5,0.3,0.7,0.5C309,17.4,308.7,17.2,308.5,17z"/>
<path class="st2" d="M309.4,17.7c0.3,0.2,0.6,0.4,0.8,0.6C310,18.1,309.7,17.9,309.4,17.7z"/>
<path class="st2" d="M306.3,15.7c0.3,0.2,0.6,0.3,0.9,0.5C306.9,16.1,306.6,15.9,306.3,15.7z"/>
<path class="st2" d="M301.1,13.2c0.4,0.2,0.9,0.4,1.3,0.6C302,13.6,301.5,13.4,301.1,13.2z"/>
<path class="st2" d="M186.3,40c-0.5,0.6-1,1.3-1.5,1.9C185.3,41.3,185.8,40.7,186.3,40z"/>
<path class="st2" d="M302.5,13.8c0.4,0.2,0.7,0.4,1.1,0.5C303.2,14.2,302.9,14,302.5,13.8z"/>
<path class="st2" d="M292.5,53c-0.4-0.2-0.8-0.3-1.3-0.5C291.6,52.7,292,52.8,292.5,53z"/>
<path class="st2" d="M316.4,24.8c2.3,3.6,3.6,7.6,4.2,11.4C320,32.4,318.7,28.4,316.4,24.8z"/>
<path class="st2" d="M288.2,50.8c-0.4-0.3-0.8-0.6-1.2-0.9C287.4,50.2,287.8,50.5,288.2,50.8z"/>
<path class="st2" d="M290.9,52.3c-0.4-0.2-0.8-0.4-1.2-0.6C290.1,51.9,290.5,52.2,290.9,52.3z"/>
<path class="st2" d="M289.5,51.6c-0.4-0.2-0.7-0.4-1.1-0.7C288.8,51.2,289.1,51.4,289.5,51.6z"/>
<path class="st2" d="M320.7,37.5c0.1,1.3,0.2,2.5,0.2,3.7C320.9,40,320.9,38.7,320.7,37.5z"/>
<path class="st2" d="M286.7,49.7c-0.4-0.3-0.8-0.6-1.1-0.9C286,49.1,286.3,49.4,286.7,49.7z"/>
<path class="st2" d="M278.9,41.9c-0.4-0.5-0.8-1-1.2-1.5C278.1,40.9,278.5,41.4,278.9,41.9z"/>
<path class="st2" d="M247.9,42.5c0.2,0.6,0.4,1.2,0.5,1.8C248.3,43.7,248.1,43.1,247.9,42.5z"/>
<path class="st2" d="M249,46.4c0.2,0.6,0.3,1.2,0.5,1.7C249.3,47.5,249.2,47,249,46.4z"/>
<path class="st2" d="M248.5,44.6c0.2,0.6,0.3,1.2,0.5,1.7C248.9,45.8,248.7,45.2,248.5,44.6z"/>
<path class="st2" d="M249.6,48.5c0.1,0.6,0.3,1.1,0.4,1.7C249.9,49.7,249.7,49.1,249.6,48.5z"/>
<path class="st2" d="M181.4,6.5c4.4,6.3,9.3,12.4,14.8,17.9c-0.4,0.8-0.8,1.5-1.3,2.3C202.5,13.3,207.4,0,207.4,0s-13.8,2.7-28,7.1
	C180.1,6.9,180.7,6.7,181.4,6.5z"/>
<path class="st2" d="M250.7,54c0.1,0.6,0.2,1.1,0.3,1.7C250.9,55.1,250.8,54.6,250.7,54z"/>
<path class="st2" d="M250.4,52.3c0.1,0.6,0.2,1.1,0.3,1.7C250.6,53.5,250.5,52.9,250.4,52.3z"/>
<path class="st2" d="M212.5,59c0.1-0.5,0.2-1.1,0.3-1.7C212.7,57.9,212.6,58.5,212.5,59z"/>
<path class="st2" d="M212.2,61.7c0-0.6,0.1-1.3,0.2-2C212.3,60.3,212.3,61,212.2,61.7z"/>
<path class="st2" d="M212.9,56.8c0.2-0.8,0.3-1.5,0.5-2.3C213.2,55.2,213.1,56,212.9,56.8z"/>
<path class="st2" d="M215.1,48.8c0.6-1.8,1.2-3.7,1.9-5.5C216.3,45.1,215.6,47,215.1,48.8z"/>
<path class="st2" d="M214.3,51.4c0.2-0.7,0.4-1.5,0.7-2.2C214.7,49.9,214.5,50.6,214.3,51.4z"/>
<path class="st2" d="M250,50.2c0.1,0.6,0.2,1.1,0.4,1.7C250.2,51.4,250.1,50.8,250,50.2z"/>
<path class="st2" d="M251.4,64.6c0,0.5-0.1,0.9-0.1,1.4C251.3,65.5,251.4,65.1,251.4,64.6z"/>
<path class="st2" d="M251,67.7c-0.1,0.4-0.2,0.9-0.3,1.3C250.8,68.6,250.9,68.1,251,67.7z"/>
<path class="st2" d="M251.2,66.3c-0.1,0.5-0.1,0.9-0.2,1.4C251.1,67.2,251.2,66.8,251.2,66.3z"/>
<path class="st2" d="M247.9,42.5c-5.3-17.2-14.7-33.9-14.7-33.9s-9.9,17.8-16.1,34.2c0.3-0.9,0.7-1.9,1.1-2.8
	C227.3,44.1,237.2,45.4,247.9,42.5z"/>
<path class="st2" d="M250.6,69.3c-0.1,0.4-0.2,0.8-0.4,1.2C250.4,70.1,250.5,69.7,250.6,69.3z"/>
<path class="st2" d="M251.4,59.7c0,0.5,0.1,1,0.1,1.5C251.5,60.7,251.4,60.2,251.4,59.7z"/>
<path class="st2" d="M184.7,42.1c-0.5,0.6-1,1.2-1.5,1.8C183.7,43.2,184.2,42.7,184.7,42.1z"/>
<path class="st2" d="M251.2,57.7c0.1,0.5,0.1,1.1,0.1,1.6C251.3,58.8,251.3,58.2,251.2,57.7z"/>
<path class="st2" d="M251.5,61.2c0,0.5,0,1,0,1.5C251.5,62.3,251.5,61.8,251.5,61.2z"/>
<path class="st2" d="M251,56.1c0.1,0.5,0.1,1.1,0.2,1.6C251.2,57.1,251.1,56.6,251,56.1z"/>
<path class="st2" d="M251.5,63.1c0,0.5,0,1-0.1,1.5C251.5,64.1,251.5,63.6,251.5,63.1z"/>
<path class="st2" d="M213.4,54.4c0.2-0.8,0.4-1.6,0.7-2.4C213.9,52.8,213.6,53.6,213.4,54.4z"/>
<path class="st2" d="M154.6,17.4c0.4-0.2,0.7-0.5,1.1-0.7C155.4,16.9,155,17.2,154.6,17.4z"/>
<path class="st2" d="M153.4,18.3c0.3-0.3,0.7-0.5,1.1-0.8C154.1,17.8,153.7,18,153.4,18.3z"/>
<path class="st2" d="M156,16.5c0.4-0.2,0.8-0.5,1.2-0.7C156.8,16.1,156.4,16.3,156,16.5z"/>
<path class="st2" d="M157.4,15.7c0.4-0.2,0.9-0.5,1.4-0.7C158.3,15.2,157.9,15.5,157.4,15.7z"/>
<path class="st2" d="M160.4,14.2c0.5-0.2,1-0.5,1.5-0.7C161.4,13.7,160.9,13.9,160.4,14.2z"/>
<path class="st2" d="M143.1,36.2c0.6-3.8,1.9-7.8,4.2-11.4C145,28.4,143.7,32.4,143.1,36.2z"/>
<path class="st2" d="M158.9,14.9c0.5-0.2,1-0.5,1.4-0.7C159.8,14.5,159.3,14.7,158.9,14.9z"/>
<path class="st2" d="M174.7,51.3c-0.6,0.3-1.1,0.7-1.7,0.9C173.5,52,174.1,51.6,174.7,51.3z"/>
<path class="st2" d="M179.8,47.3c-0.5,0.5-1.1,1-1.6,1.4C178.7,48.3,179.2,47.8,179.8,47.3z"/>
<path class="st2" d="M142.8,41.1c0-1.2,0.1-2.4,0.2-3.7C142.8,38.7,142.8,40,142.8,41.1z"/>
<path class="st2" d="M183.1,43.9c-0.5,0.6-1,1.1-1.5,1.7C182.1,45.1,182.6,44.5,183.1,43.9z"/>
<path class="st2" d="M181.4,45.7c-0.5,0.5-1,1-1.6,1.5C180.4,46.8,180.9,46.2,181.4,45.7z"/>
<path class="st2" d="M172.9,52.3c-0.6,0.3-1.2,0.5-1.7,0.7C171.8,52.8,172.4,52.5,172.9,52.3z"/>
<path class="st2" d="M178.1,48.8c-0.5,0.4-1.1,0.9-1.6,1.3C177,49.7,177.6,49.3,178.1,48.8z"/>
<path class="st2" d="M162.2,13.3c0.5-0.2,1-0.5,1.5-0.7C163.2,12.9,162.7,13.1,162.2,13.3z"/>
<path class="st2" d="M176.4,50.2c-0.5,0.4-1.1,0.8-1.7,1.1C175.3,50.9,175.8,50.6,176.4,50.2z"/>
<path class="st2" d="M169.5,10.4c0.6-0.2,1.2-0.4,1.8-0.7C170.7,9.9,170.1,10.2,169.5,10.4z"/>
<path class="st2" d="M152.2,19.3c-0.8,0.7-1.5,1.4-2.2,2.1C150.6,20.6,151.4,19.9,152.2,19.3z"/>
<path class="st2" d="M164,12.6c0.5-0.2,1.1-0.5,1.6-0.7C165.1,12.1,164.5,12.3,164,12.6z"/>
<path class="st2" d="M171.5,9.7c0.6-0.2,1.2-0.4,1.9-0.6C172.7,9.2,172.1,9.5,171.5,9.7z"/>
<path class="st2" d="M165.7,11.8c1.2-0.5,2.4-0.9,3.6-1.4C168.1,10.9,166.9,11.4,165.7,11.8z"/>
<path class="st2" d="M173.4,9c2-0.7,4-1.3,6-1.9C177.4,7.7,175.4,8.3,173.4,9z"/>
<path class="st1" d="M233.2,89.7c3.9,0,7,0,10.6-5.4c1.9-2.8,4-7.1,6.4-13.7c0,0,0,0,0,0c0.1-0.4,0.3-0.8,0.4-1.2
	c0-0.1,0.1-0.2,0.1-0.3c0.1-0.4,0.2-0.9,0.3-1.3c0,0,0,0,0,0c0.1-0.4,0.2-0.9,0.2-1.4c0-0.1,0-0.2,0-0.3c0.1-0.5,0.1-0.9,0.1-1.4
	c0,0,0,0,0,0c0-0.5,0.1-1,0.1-1.5c0-0.1,0-0.2,0-0.4c0-0.5,0-1,0-1.5c0,0,0,0,0,0c0-0.5,0-1-0.1-1.5c0-0.1,0-0.3,0-0.4
	c0-0.5-0.1-1.1-0.1-1.6c0,0,0,0,0,0c-0.1-0.5-0.1-1.1-0.2-1.6c0-0.1,0-0.3-0.1-0.4c-0.1-0.6-0.2-1.1-0.3-1.7c0,0,0,0,0,0
	c-0.1-0.6-0.2-1.1-0.3-1.7c0-0.1-0.1-0.3-0.1-0.4c-0.1-0.6-0.2-1.1-0.4-1.7c0,0,0,0,0,0c-0.1-0.6-0.3-1.1-0.4-1.7
	c0-0.1-0.1-0.3-0.1-0.4c-0.1-0.6-0.3-1.2-0.5-1.7c0,0,0,0,0,0c-0.2-0.6-0.3-1.2-0.5-1.7c0-0.1-0.1-0.2-0.1-0.4
	c-0.2-0.6-0.3-1.2-0.5-1.8c0,0,0,0,0,0l0,0c-10.7,2.9-20.6,1.6-29.7-2.4c-0.4,0.9-0.7,1.9-1.1,2.8c0,0.1-0.1,0.2-0.1,0.3
	c-0.7,1.9-1.4,3.7-1.9,5.5c0,0.1-0.1,0.3-0.1,0.4c-0.2,0.7-0.5,1.5-0.7,2.2c-0.1,0.2-0.1,0.4-0.2,0.6c-0.2,0.8-0.5,1.6-0.7,2.4
	c0,0,0,0,0,0.1c-0.2,0.8-0.4,1.6-0.5,2.3c0,0.2-0.1,0.4-0.1,0.6c-0.1,0.6-0.2,1.1-0.3,1.7c0,0.2-0.1,0.4-0.1,0.6
	c-0.1,0.7-0.2,1.4-0.2,2C211.2,78.7,227.2,89.7,233.2,89.7z"/>
<path class="st1" d="M181.4,6.5c-0.7,0.2-1.3,0.4-2,0.6c0,0,0,0,0,0c-2,0.6-4,1.2-6,1.9c0,0-0.1,0-0.1,0c-0.6,0.2-1.2,0.4-1.9,0.6
	c-0.1,0-0.1,0-0.2,0.1c-0.6,0.2-1.2,0.4-1.8,0.7c-0.1,0-0.1,0-0.2,0.1c-1.2,0.5-2.4,0.9-3.6,1.4c0,0-0.1,0-0.1,0.1
	c-0.6,0.2-1.1,0.5-1.6,0.7c-0.1,0-0.2,0.1-0.2,0.1c-0.5,0.2-1,0.5-1.5,0.7c-0.1,0-0.2,0.1-0.2,0.1c-0.5,0.2-1,0.5-1.5,0.7
	c0,0-0.1,0-0.1,0.1c-0.5,0.2-1,0.5-1.4,0.7c0,0-0.1,0-0.1,0c-0.5,0.2-0.9,0.5-1.4,0.7c-0.1,0-0.1,0.1-0.2,0.1
	c-0.4,0.2-0.8,0.5-1.2,0.7c-0.1,0-0.1,0.1-0.2,0.1c-0.4,0.2-0.8,0.5-1.1,0.7c-0.1,0-0.1,0.1-0.2,0.1c-0.4,0.3-0.7,0.5-1.1,0.8
	c-0.4,0.3-0.8,0.6-1.2,1c-0.8,0.7-1.5,1.4-2.2,2.1c-1,1.1-1.9,2.3-2.7,3.5c-2.3,3.6-3.6,7.6-4.2,11.4c-0.1,0.4-0.1,0.8-0.2,1.3
	c-0.1,1.3-0.2,2.5-0.2,3.7c0,5.1,1.3,9.4,2.9,11.3c0.4,0.4,0.7,0.8,1.1,1.2c0.2,0.3,0.5,0.5,0.7,0.8c0.2,0.2,0.5,0.5,0.8,0.7
	c0.3,0.2,0.5,0.4,0.8,0.6c0.3,0.2,0.6,0.4,0.9,0.5c1.1,0.6,2.5,0.9,4.2,0.9c0.5,0,1,0,1.6,0c0.9-0.1,1.8-0.2,2.9-0.4
	c3.2-0.6,7.2-1.8,12.6-3.7c0,0,0,0,0,0c0.6-0.2,1.2-0.5,1.7-0.7c0,0,0,0,0,0c0.6-0.3,1.1-0.6,1.7-0.9c0,0,0,0,0.1,0
	c0.6-0.3,1.1-0.7,1.7-1.1c0,0,0.1,0,0.1-0.1c0.5-0.4,1.1-0.8,1.6-1.3c0,0,0.1-0.1,0.1-0.1c0.5-0.4,1.1-0.9,1.6-1.4
	c0,0,0.1-0.1,0.1-0.1c0.5-0.5,1-1,1.6-1.5c0,0,0.1-0.1,0.1-0.1c0.5-0.5,1-1.1,1.5-1.7c0,0,0.1-0.1,0.1-0.1c0.5-0.6,1-1.2,1.5-1.8
	c0,0,0.1-0.1,0.1-0.1c0.5-0.6,1-1.2,1.5-1.9c0,0,0.1-0.1,0.1-0.1c0.5-0.6,1-1.3,1.4-2c0,0,0.1-0.1,0.1-0.1c0.5-0.7,0.9-1.3,1.4-2
	c0,0,0.1-0.1,0.1-0.1c0.5-0.7,0.9-1.4,1.4-2.1c0,0,0-0.1,0.1-0.1c0.5-0.7,0.9-1.4,1.4-2.2c0,0,0-0.1,0.1-0.1
	c0.5-0.7,0.9-1.5,1.3-2.2c0,0,0,0,0-0.1c0.4-0.8,0.9-1.5,1.3-2.3c0,0,0,0,0,0c0.4-0.8,0.9-1.5,1.3-2.3
	C190.8,18.9,185.8,12.8,181.4,6.5z"/>
<path class="st1" d="M275.1,36.9c0,0,0.1,0.1,0.1,0.1c0.8,1.1,1.5,2.2,2.3,3.2c0,0.1,0.1,0.1,0.1,0.2c0.4,0.5,0.8,1,1.2,1.5
	c0,0,0,0.1,0.1,0.1c0.4,0.5,0.8,0.9,1.1,1.4c0,0.1,0.1,0.1,0.1,0.2c0.4,0.5,0.8,0.9,1.2,1.3c0.1,0.1,0.1,0.1,0.2,0.2
	c0.4,0.4,0.8,0.8,1.2,1.2c0,0,0,0,0,0c0.4,0.4,0.8,0.8,1.2,1.2c0.1,0.1,0.2,0.1,0.2,0.2c0.4,0.4,0.8,0.7,1.2,1.1
	c0,0,0.1,0.1,0.1,0.1c0.4,0.3,0.8,0.6,1.1,0.9c0.1,0.1,0.2,0.1,0.2,0.2c0.4,0.3,0.8,0.6,1.2,0.9c0.1,0,0.2,0.1,0.2,0.1
	c0.4,0.2,0.7,0.5,1.1,0.7c0.1,0,0.1,0.1,0.2,0.1c0.4,0.2,0.8,0.4,1.2,0.6c0.1,0,0.2,0.1,0.3,0.1c0.4,0.2,0.8,0.4,1.3,0.5
	c0,0,0,0,0,0c5.4,2,9.4,3.2,12.6,3.7c1.1,0.2,2,0.3,2.9,0.4c0.6,0,1.1,0.1,1.6,0c1.8,0,3.1-0.4,4.2-0.9c0.3-0.2,0.6-0.3,0.9-0.5
	c0.3-0.2,0.6-0.4,0.8-0.6s0.5-0.5,0.8-0.7c0.2-0.2,0.5-0.5,0.7-0.8c0.4-0.4,0.7-0.8,1.1-1.2c1.6-1.9,2.8-6.1,2.9-11.3
	c0-1.2-0.1-2.4-0.2-3.7c0-0.4-0.1-0.8-0.2-1.3c-0.6-3.8-1.9-7.8-4.2-11.4c-0.8-1.2-1.7-2.4-2.7-3.5c-0.7-0.7-1.4-1.4-2.2-2.1
	c-0.4-0.3-0.8-0.7-1.2-1c-0.3-0.2-0.5-0.4-0.8-0.6c-0.1-0.1-0.2-0.1-0.2-0.2c-0.2-0.2-0.5-0.3-0.7-0.5c-0.1,0-0.1-0.1-0.2-0.1
	c-0.3-0.2-0.6-0.4-1-0.6c-0.1,0-0.1-0.1-0.2-0.1c-0.3-0.2-0.6-0.3-0.9-0.5c-0.1,0-0.2-0.1-0.2-0.1c-0.7-0.4-1.5-0.8-2.3-1.2
	c-0.1,0-0.1-0.1-0.2-0.1c-0.4-0.2-0.7-0.4-1.1-0.5c0,0-0.1,0-0.1-0.1c-0.4-0.2-0.9-0.4-1.3-0.6c0,0,0,0,0,0l0,0
	c-8.3,6-18.1,12.3-29.4,18.5C272.8,33.4,273.9,35.2,275.1,36.9z"/>
<path class="st2" d="M439.5,309.3c-0.6-0.2-1.2-0.4-1.8-0.7C438.3,308.9,438.9,309.1,439.5,309.3z"/>
<path class="st2" d="M437.5,308.6c-1.2-0.5-2.4-0.9-3.6-1.4C435.1,307.7,436.3,308.2,437.5,308.6z"/>
<path class="st2" d="M481.6,264.7c-0.2-0.8-0.4-1.6-0.5-2.3C481.2,263.1,481.4,263.9,481.6,264.7z"/>
<path class="st2" d="M441.5,310c-0.6-0.2-1.2-0.4-1.9-0.6C440.3,309.6,440.9,309.8,441.5,310z"/>
<path class="st2" d="M482.3,267.1c-0.2-0.8-0.5-1.6-0.7-2.4C481.8,265.5,482,266.3,482.3,267.1z"/>
<path class="st2" d="M463.1,292.4c0.4,0.8,0.8,1.5,1.3,2.3C463.9,294,463.5,293.2,463.1,292.4z"/>
<path class="st2" d="M461.8,290.1c0.4,0.8,0.9,1.5,1.3,2.3C462.7,291.6,462.2,290.9,461.8,290.1z"/>
<path class="st2" d="M447.5,312c-2-0.6-4-1.2-6-1.9C443.6,310.7,445.6,311.4,447.5,312z"/>
<path class="st2" d="M442.9,267.8c0.6,0.3,1.1,0.7,1.7,1.1C444,268.5,443.5,268.1,442.9,267.8z"/>
<path class="st2" d="M425.4,303.2c-0.4-0.2-0.8-0.5-1.2-0.7C424.6,302.8,425,303,425.4,303.2z"/>
<path class="st2" d="M423.9,302.4c-0.4-0.2-0.8-0.5-1.1-0.7C423.2,301.9,423.6,302.2,423.9,302.4z"/>
<path class="st2" d="M427,304.1c-0.5-0.2-0.9-0.5-1.4-0.7C426,303.6,426.5,303.8,427,304.1z"/>
<path class="st2" d="M433.8,307.2c-0.6-0.2-1.1-0.5-1.6-0.7C432.7,306.7,433.2,307,433.8,307.2z"/>
<path class="st2" d="M416.3,295.4c1.4,2,3.2,3.8,5.3,5.4c0.3,0.3,0.7,0.5,1.1,0.8c-0.4-0.3-0.8-0.5-1.1-0.8
	C419.4,299.2,417.7,297.4,416.3,295.4z"/>
<path class="st2" d="M431.9,306.4c-0.5-0.2-1-0.5-1.6-0.7C430.9,306,431.4,306.2,431.9,306.4z"/>
<path class="st2" d="M430.1,305.6c-0.5-0.2-1-0.5-1.5-0.7C429.1,305.2,429.6,305.4,430.1,305.6z"/>
<path class="st2" d="M428.5,304.9c-0.5-0.2-1-0.5-1.5-0.7C427.5,304.4,428,304.6,428.5,304.9z"/>
<path class="st2" d="M449.7,273.5c0.5,0.5,1,1.1,1.5,1.7C450.7,274.6,450.2,274,449.7,273.5z"/>
<path class="st2" d="M460.4,287.9c0.4,0.7,0.9,1.5,1.3,2.2C461.3,289.3,460.9,288.6,460.4,287.9z"/>
<path class="st2" d="M416.3,264c0.3-0.2,0.5-0.4,0.8-0.6C416.9,263.5,416.6,263.7,416.3,264z"/>
<path class="st2" d="M411.3,282.9c-0.3-1.7-0.4-3.3-0.3-4.9C410.9,279.5,411,281.2,411.3,282.9z"/>
<path class="st2" d="M451.3,275.3c0.5,0.6,1,1.2,1.5,1.8C452.3,276.4,451.9,275.8,451.3,275.3z"/>
<path class="st2" d="M441.1,266.8c0.6,0.3,1.1,0.6,1.7,0.9C442.3,267.4,441.7,267.1,441.1,266.8z"/>
<path class="st2" d="M444.6,269c0.5,0.4,1.1,0.8,1.6,1.3C445.7,269.8,445.2,269.4,444.6,269z"/>
<path class="st2" d="M446.3,270.3c0.5,0.4,1.1,0.9,1.6,1.4C447.4,271.2,446.9,270.8,446.3,270.3z"/>
<path class="st2" d="M419.6,262.2c0.2-0.1,0.4-0.1,0.7-0.1C420.1,262.1,419.9,262.2,419.6,262.2z"/>
<path class="st2" d="M439.4,266.1c0.6,0.2,1.2,0.5,1.7,0.7C440.5,266.5,440,266.3,439.4,266.1z"/>
<path class="st2" d="M453,277.2c0.5,0.6,1,1.2,1.5,1.9C453.9,278.4,453.4,277.8,453,277.2z"/>
<path class="st2" d="M448,271.8c0.5,0.5,1,1,1.6,1.5C449.1,272.8,448.6,272.3,448,271.8z"/>
<path class="st2" d="M421.5,261.9c0.3,0,0.5,0,0.8,0C422,261.9,421.8,261.9,421.5,261.9z"/>
<path class="st2" d="M456.1,281.2c0.5,0.7,0.9,1.3,1.4,2C457,282.6,456.5,281.9,456.1,281.2z"/>
<path class="st2" d="M485.2,275.9c-0.7-1.9-1.4-3.7-1.9-5.6C483.8,272.1,484.5,274,485.2,275.9z"/>
<path class="st2" d="M459,285.6c0.5,0.7,0.9,1.4,1.4,2.2C459.9,287.1,459.5,286.3,459,285.6z"/>
<path class="st2" d="M457.6,283.4c0.5,0.7,0.9,1.4,1.4,2.1C458.5,284.8,458,284.1,457.6,283.4z"/>
<path class="st2" d="M483.1,269.9c-0.2-0.7-0.5-1.5-0.7-2.2C482.6,268.4,482.9,269.2,483.1,269.9z"/>
<path class="st2" d="M416.3,295.4c-2.8-3.9-4.4-8.3-5-12.6C411.9,287.1,413.4,291.5,416.3,295.4z"/>
<path class="st2" d="M481,261.7c-0.1-0.6-0.2-1.1-0.3-1.7C480.8,260.6,480.8,261.2,481,261.7z"/>
<path class="st2" d="M454.5,279.2c0.5,0.6,1,1.3,1.4,1.9C455.5,280.4,455,279.8,454.5,279.2z"/>
<g>
	<path class="st2" d="M447.6,319.9c14.2,4.3,28,7.1,28,7.1s-4.4-11.8-11.2-24.4c-5.4,5.4-10.4,11.6-14.8,17.9
		C448.9,320.3,448.2,320.1,447.6,319.9z"/>
	<path class="st2" d="M485.3,284.1c4.8,12.7,11.8,26.2,14.7,31.7v-32.6c-4.7,0.5-9.3,1.8-13.6,3.7C486,286,485.6,285.1,485.3,284.1z
		"/>
	<path class="st1" d="M480.4,265.4c0,0.6,0.1,1.3,0.2,2c0,0.2,0.1,0.4,0.1,0.6c0.1,0.5,0.2,1.1,0.3,1.7c0,0.2,0.1,0.4,0.1,0.6
		c0.2,0.8,0.3,1.5,0.5,2.3c0,0,0,0,0,0c0.2,0.8,0.4,1.6,0.7,2.4c0.1,0.2,0.1,0.4,0.2,0.6c0.2,0.7,0.4,1.5,0.7,2.2
		c0,0.1,0.1,0.3,0.1,0.4c0.6,1.8,1.2,3.7,1.9,5.6c0,0.1,0.1,0.2,0.1,0.3c0.4,0.9,0.7,1.9,1.1,2.8c4.4-1.9,8.9-3.2,13.6-3.7v-45.7
		C493.2,238.9,479.5,249.5,480.4,265.4z"/>
	<path class="st1" d="M423.9,310.3c0.1,0,0.1,0.1,0.2,0.1c0.4,0.2,0.8,0.5,1.2,0.7c0.1,0,0.1,0.1,0.2,0.1c0.4,0.2,0.9,0.5,1.4,0.7
		c0,0,0.1,0,0.1,0c0.5,0.2,1,0.5,1.5,0.7c0,0,0.1,0,0.1,0.1c0.5,0.2,1,0.5,1.5,0.7c0.1,0,0.2,0.1,0.2,0.1c0.5,0.2,1,0.5,1.6,0.7
		c0.1,0,0.2,0.1,0.2,0.1c0.5,0.2,1.1,0.5,1.6,0.7c0,0,0.1,0,0.1,0c1.2,0.5,2.4,0.9,3.6,1.4c0.1,0,0.1,0,0.2,0.1
		c0.6,0.2,1.2,0.4,1.8,0.7c0.1,0,0.1,0,0.2,0.1c0.6,0.2,1.2,0.4,1.9,0.6c0,0,0.1,0,0.1,0c2,0.7,4,1.3,6,1.9c0,0,0,0,0,0
		c0.7,0.2,1.3,0.4,2,0.6c4.4-6.3,9.3-12.4,14.8-17.9l0,0c0,0,0,0,0,0c-0.4-0.8-0.8-1.5-1.3-2.3c0,0,0,0,0,0
		c-0.4-0.8-0.9-1.5-1.3-2.3c0,0,0,0,0-0.1c-0.4-0.7-0.9-1.5-1.3-2.2c0,0,0-0.1-0.1-0.1c-0.4-0.7-0.9-1.4-1.4-2.2c0,0,0-0.1-0.1-0.1
		c-0.5-0.7-0.9-1.4-1.4-2.1c0,0-0.1-0.1-0.1-0.1c-0.5-0.7-0.9-1.4-1.4-2c0,0-0.1-0.1-0.1-0.1c-0.5-0.7-1-1.3-1.4-1.9
		c0,0-0.1-0.1-0.1-0.1c-0.5-0.6-1-1.3-1.5-1.9c0,0-0.1-0.1-0.1-0.1c-0.5-0.6-1-1.2-1.5-1.8c0,0-0.1-0.1-0.1-0.1
		c-0.5-0.6-1-1.1-1.5-1.7c0,0-0.1-0.1-0.1-0.1c-0.5-0.5-1-1-1.6-1.5c0,0-0.1-0.1-0.1-0.1c-0.5-0.5-1.1-1-1.6-1.4
		c0,0-0.1-0.1-0.1-0.1c-0.5-0.4-1.1-0.9-1.6-1.3c0,0-0.1,0-0.1-0.1c-0.5-0.4-1.1-0.8-1.7-1.1c0,0,0,0-0.1,0
		c-0.6-0.3-1.1-0.7-1.7-0.9c0,0,0,0,0,0c-0.6-0.3-1.2-0.5-1.7-0.7c0,0,0,0,0,0c-8.4-3.1-13.6-4.2-17.1-4.2c-0.3,0-0.5,0-0.8,0
		c-0.4,0-0.8,0.1-1.2,0.2c-0.2,0-0.5,0.1-0.7,0.1c-0.6,0.2-1.1,0.3-1.6,0.6c-0.3,0.2-0.6,0.3-0.9,0.5c-0.3,0.2-0.6,0.4-0.8,0.6
		c-0.3,0.2-0.5,0.5-0.8,0.7c-0.2,0.2-0.5,0.5-0.7,0.8c-0.4,0.4-0.7,0.8-1.1,1.2c-1.6,1.9-2.8,6.1-2.9,11.3c0,1.6,0.1,3.2,0.3,4.9
		c0.6,4.2,2.2,8.7,5,12.6c1.4,2,3.2,3.8,5.3,5.4c0.3,0.3,0.7,0.5,1.1,0.8c0,0,0.1,0.1,0.1,0.1C423.2,309.9,423.6,310.1,423.9,310.3z
		"/>
</g>
<path class="st2" d="M19.6,265.8c0,0.5,0,1-0.1,1.5C19.6,266.8,19.6,266.3,19.6,265.8z"/>
<path class="st2" d="M59.4,274.5c0.4-0.2,0.8-0.4,1.3-0.5C60.2,274.2,59.8,274.3,59.4,274.5z"/>
<path class="st2" d="M19.4,269.3c-0.1,0.5-0.1,1.1-0.2,1.6C19.3,270.4,19.4,269.9,19.4,269.3z"/>
<path class="st2" d="M57.9,275.3c0.4-0.2,0.8-0.4,1.2-0.6C58.7,274.9,58.3,275.1,57.9,275.3z"/>
<path class="st2" d="M19.5,267.7c0,0.5-0.1,1.1-0.1,1.6C19.5,268.8,19.5,268.2,19.5,267.7z"/>
<path class="st2" d="M55.1,277.1c0.4-0.3,0.8-0.6,1.2-0.9C55.9,276.5,55.5,276.8,55.1,277.1z"/>
<path class="st2" d="M56.6,276.1c0.4-0.2,0.7-0.5,1.1-0.7C57.3,275.6,56.9,275.9,56.6,276.1z"/>
<path class="st2" d="M19.7,264.3c0,0.5,0,1,0,1.5C19.7,265.3,19.7,264.8,19.7,264.3z"/>
<path class="st2" d="M18.9,258c0.1,0.4,0.2,0.8,0.3,1.3C19.1,258.9,19,258.5,18.9,258z"/>
<path class="st2" d="M79.7,307.7c0.8-0.7,1.5-1.4,2.2-2.1C81.2,306.4,80.5,307.1,79.7,307.7z"/>
<path class="st2" d="M75.3,310.8c-0.3,0.2-0.6,0.3-0.9,0.5C74.7,311.1,75,311,75.3,310.8z"/>
<path class="st2" d="M18.4,256.5c0.1,0.4,0.3,0.8,0.4,1.2C18.7,257.3,18.5,256.9,18.4,256.5z"/>
<path class="st2" d="M19.6,262.5c0,0.5,0.1,1,0.1,1.4C19.6,263.4,19.6,262.9,19.6,262.5z"/>
<path class="st2" d="M19.4,261c0.1,0.5,0.1,0.9,0.1,1.4C19.5,262,19.5,261.5,19.4,261z"/>
<path class="st2" d="M19.2,259.3c0.1,0.4,0.2,0.9,0.2,1.3C19.3,260.2,19.3,259.8,19.2,259.3z"/>
<path class="st2" d="M1.4,237.4c-0.4,0-0.9,0.1-1.4,0.2v0C0.5,237.4,1,237.4,1.4,237.4L1.4,237.4z"/>
<path class="st2" d="M15.1,284.5C9.5,283,4.1,282.6-1,283.2v32.6c0.9,1.6,1.4,2.6,1.4,2.6S9.7,301.7,15.1,284.5z"/>
<path class="st2" d="M74.2,311.4c-0.7,0.4-1.5,0.8-2.3,1.2C72.7,312.2,73.5,311.8,74.2,311.4z"/>
<path class="st2" d="M89.1,285.9C89.1,285.9,89.1,285.9,89.1,285.9C89.1,285.9,89.1,285.9,89.1,285.9z"/>
<path class="st2" d="M89,288.2c-0.1,0.8-0.1,1.7-0.3,2.6C88.8,289.9,88.9,289.1,89,288.2z"/>
<path class="st2" d="M70.5,313.3c-0.4,0.2-0.9,0.4-1.3,0.6C69.7,313.7,70.1,313.5,70.5,313.3z"/>
<path class="st2" d="M71.8,312.7c-0.4,0.2-0.7,0.4-1.1,0.5C71,313,71.4,312.9,71.8,312.7z"/>
<path class="st2" d="M16.6,282.8c-0.2,0.6-0.3,1.2-0.5,1.7C16.2,283.9,16.4,283.3,16.6,282.8z"/>
<path class="st2" d="M86.7,298c-0.6,1.4-1.3,2.9-2.2,4.2C85.4,300.8,86.1,299.4,86.7,298z"/>
<path class="st2" d="M53.7,278.2c0.4-0.3,0.8-0.6,1.1-0.9C54.5,277.6,54.1,277.9,53.7,278.2z"/>
<path class="st2" d="M76.5,310.1c-0.3,0.2-0.6,0.4-1,0.6C75.8,310.5,76.1,310.3,76.5,310.1z"/>
<path class="st2" d="M78.4,308.7c-0.3,0.2-0.5,0.4-0.8,0.6C77.9,309.1,78.2,308.9,78.4,308.7z"/>
<path class="st2" d="M23.4,327c0,0,27.5-5.5,44.8-13.2c-8.3-6-18.1-12.3-29.4-18.5C29.7,310.2,23.4,327,23.4,327z"/>
<path class="st2" d="M88.7,290.8c-0.1,0.5-0.2,1-0.3,1.5C88.5,291.8,88.6,291.3,88.7,290.8z"/>
<path class="st2" d="M88,294.3c-0.1,0.2-0.1,0.5-0.2,0.7C87.9,294.8,87.9,294.6,88,294.3z"/>
<path class="st2" d="M77.4,309.5c-0.2,0.2-0.5,0.3-0.7,0.5C76.9,309.8,77.1,309.7,77.4,309.5z"/>
<path class="st2" d="M48.4,283.5c0.4-0.5,0.8-0.9,1.2-1.3C49.2,282.6,48.8,283.1,48.4,283.5z"/>
<path class="st2" d="M49.8,282c0.4-0.4,0.8-0.8,1.2-1.2C50.5,281.2,50.1,281.6,49.8,282z"/>
<path class="st2" d="M47.1,285c0.4-0.5,0.8-0.9,1.1-1.4C47.9,284.1,47.5,284.6,47.1,285z"/>
<path class="st2" d="M52.4,279.3c0.4-0.4,0.8-0.7,1.2-1.1C53.2,278.6,52.8,279,52.4,279.3z"/>
<path class="st2" d="M19.2,271.3c-0.1,0.5-0.2,1.1-0.3,1.7C19,272.4,19.1,271.9,19.2,271.3z"/>
<path class="st2" d="M51,280.7c0.4-0.4,0.8-0.8,1.2-1.2C51.8,279.9,51.4,280.3,51,280.7z"/>
<path class="st2" d="M18.9,273c-0.1,0.5-0.2,1.1-0.3,1.7C18.7,274.1,18.8,273.6,18.9,273z"/>
<path class="st2" d="M39.8,295.4c1.1-1.8,2.3-3.6,3.5-5.3C42.1,291.8,40.9,293.6,39.8,295.4z"/>
<path class="st2" d="M18.1,276.8c-0.1,0.6-0.3,1.1-0.4,1.7C17.9,277.9,18,277.4,18.1,276.8z"/>
<path class="st2" d="M17.2,280.7c-0.2,0.6-0.3,1.1-0.5,1.7C16.9,281.8,17,281.2,17.2,280.7z"/>
<path class="st2" d="M45.9,286.6c0.4-0.5,0.8-1,1.2-1.5C46.6,285.6,46.2,286.1,45.9,286.6z"/>
<path class="st2" d="M17.6,278.9c-0.1,0.6-0.3,1.2-0.5,1.7C17.3,280.1,17.5,279.5,17.6,278.9z"/>
<path class="st2" d="M43.4,290c0.8-1.1,1.5-2.2,2.3-3.2C44.9,287.8,44.1,288.9,43.4,290z"/>
<path class="st2" d="M18.5,275.1c-0.1,0.6-0.2,1.1-0.4,1.7C18.3,276.2,18.4,275.6,18.5,275.1z"/>
<path class="st1" d="M15.1,284.5L15.1,284.5C15.1,284.5,15.1,284.5,15.1,284.5c0.2-0.6,0.4-1.2,0.5-1.8c0-0.1,0.1-0.3,0.1-0.4
	c0.2-0.6,0.3-1.1,0.5-1.7c0,0,0,0,0,0c0.2-0.6,0.3-1.2,0.5-1.7c0-0.1,0.1-0.3,0.1-0.4c0.1-0.6,0.3-1.1,0.4-1.7c0,0,0,0,0,0
	c0.1-0.6,0.2-1.1,0.4-1.7c0-0.1,0.1-0.3,0.1-0.4c0.1-0.6,0.2-1.1,0.3-1.7c0,0,0,0,0,0c0.1-0.6,0.2-1.1,0.3-1.7c0-0.1,0-0.3,0.1-0.4
	c0.1-0.5,0.1-1.1,0.2-1.6c0,0,0,0,0,0c0.1-0.5,0.1-1.1,0.1-1.6c0-0.1,0-0.3,0-0.4c0-0.5,0.1-1,0.1-1.5c0,0,0,0,0,0c0-0.5,0-1,0-1.5
	c0-0.1,0-0.2,0-0.4c0-0.5,0-1-0.1-1.4c0,0,0,0,0,0c0-0.5-0.1-0.9-0.1-1.4c0-0.1,0-0.2,0-0.3c-0.1-0.5-0.1-0.9-0.2-1.3c0,0,0,0,0,0
	c-0.1-0.4-0.2-0.9-0.3-1.3c0-0.1-0.1-0.2-0.1-0.3c-0.1-0.4-0.2-0.8-0.4-1.2c0,0,0,0,0,0c-7-19.1-11-19.1-17-19.1l0,0
	c-0.4,0-0.9,0.1-1.4,0.2v45.7C4.1,282.6,9.5,283,15.1,284.5z"/>
<path class="st1" d="M85.2,274.6c-0.4-0.4-0.7-0.8-1.1-1.2c-0.2-0.3-0.5-0.5-0.7-0.8c-0.2-0.2-0.5-0.5-0.8-0.7s-0.5-0.4-0.8-0.6
	c-0.3-0.2-0.6-0.4-0.9-0.5c-0.6-0.3-1.3-0.6-2.2-0.7c-0.4-0.1-0.9-0.1-1.3-0.2c-0.2,0-0.5,0-0.7,0c-0.5,0-1,0-1.6,0
	c-0.9,0.1-1.8,0.2-2.9,0.4c-3.2,0.6-7.2,1.8-12.6,3.7c0,0,0,0,0,0c-0.4,0.2-0.8,0.3-1.3,0.5c-0.1,0-0.2,0.1-0.3,0.1
	c-0.4,0.2-0.8,0.4-1.2,0.6c-0.1,0-0.1,0.1-0.2,0.1c-0.4,0.2-0.7,0.4-1.1,0.7c-0.1,0-0.2,0.1-0.2,0.1c-0.4,0.3-0.8,0.6-1.2,0.9
	c-0.1,0.1-0.2,0.1-0.2,0.2c-0.4,0.3-0.8,0.6-1.1,0.9c0,0-0.1,0.1-0.1,0.1c-0.4,0.3-0.8,0.7-1.2,1.1c-0.1,0.1-0.2,0.1-0.2,0.2
	c-0.4,0.4-0.8,0.8-1.2,1.2c0,0,0,0,0,0c-0.4,0.4-0.8,0.8-1.2,1.2c-0.1,0.1-0.1,0.1-0.2,0.2c-0.4,0.4-0.8,0.9-1.2,1.3
	c0,0.1-0.1,0.1-0.1,0.2c-0.4,0.4-0.8,0.9-1.1,1.4c0,0,0,0.1-0.1,0.1c-0.4,0.5-0.8,1-1.2,1.5c0,0.1-0.1,0.1-0.1,0.2
	c-0.8,1-1.6,2.1-2.3,3.2c0,0-0.1,0.1-0.1,0.1c-1.2,1.7-2.3,3.5-3.5,5.3c0,0,0,0,0,0l0,0c11.3,6.1,21.1,12.4,29.4,18.5l0,0
	c0,0,0,0,0,0c0.4-0.2,0.9-0.4,1.3-0.6c0,0,0.1,0,0.1-0.1c0.4-0.2,0.7-0.4,1.1-0.5c0.1,0,0.1-0.1,0.2-0.1c0.8-0.4,1.5-0.8,2.3-1.2
	c0.1,0,0.2-0.1,0.2-0.1c0.3-0.2,0.6-0.3,0.9-0.5c0.1,0,0.1-0.1,0.2-0.1c0.3-0.2,0.7-0.4,1-0.6c0.1,0,0.1-0.1,0.2-0.1
	c0.2-0.2,0.5-0.3,0.7-0.5c0.1-0.1,0.2-0.1,0.2-0.2c0.3-0.2,0.6-0.4,0.8-0.6c0.4-0.3,0.8-0.6,1.2-1c0.8-0.7,1.5-1.4,2.2-2.1
	c1-1.1,1.9-2.3,2.7-3.5c0.9-1.4,1.6-2.8,2.2-4.2c0.4-1,0.7-1.9,1-2.9c0.1-0.2,0.1-0.5,0.2-0.7c0.2-0.7,0.3-1.3,0.5-2
	c0.1-0.5,0.2-1,0.3-1.5c0.1-0.9,0.2-1.7,0.3-2.6c0.1-0.8,0.1-1.6,0.1-2.3c0,0,0,0,0,0C88,280.8,86.8,276.5,85.2,274.6z"/>
<rect class="st0" width="500" height="327"/>
</svg>
