<?xml version="1.0" encoding="utf-8"?>
<!-- Generator: Adobe Illustrator 19.1.0, SVG Export Plug-In . SVG Version: 6.00 Build 0)  -->
<svg version="1.1" id="Layer_1" xmlns="http://www.w3.org/2000/svg" xmlns:xlink="http://www.w3.org/1999/xlink" x="0px" y="0px"
	 viewBox="0 0 497.2 507.7" style="enable-background:new 0 0 497.2 507.7;" xml:space="preserve">
<style type="text/css">
	.st0{clip-path:url(#SVGID_2_);}
	.st1{fill:#A55F26;}
	.st2{clip-path:url(#SVGID_4_);}
	.st3{clip-path:url(#SVGID_6_);}
	.st4{fill:#11A37A;}
	.st5{clip-path:url(#SVGID_8_);}
	.st6{clip-path:url(#SVGID_10_);}
</style>
<g>
	<defs>
		<rect id="SVGID_1_" width="497.2" height="507.7"/>
	</defs>
	<clipPath id="SVGID_2_">
		<use xlink:href="#SVGID_1_"  style="overflow:visible;"/>
	</clipPath>
	<g class="st0">
		<g>
			
				<rect x="151.5" y="-339.2" transform="matrix(4.394489e-03 1 -1 4.394489e-03 179.1069 -153.1705)" class="st1" width="30" height="705.1"/>
			
				<rect x="150.9" y="-284" transform="matrix(4.394489e-03 1 -1 4.394489e-03 233.6252 -97.6594)" class="st1" width="30" height="705.1"/>
			
				<rect x="146.1" y="142.9" transform="matrix(4.394489e-03 1 -1 4.394489e-03 655.8091 332.1992)" class="st1" width="30" height="705.1"/>
		</g>
		<g>
			<g>
				<g>
					<defs>
						<polygon id="SVGID_3_" points="-1.1,-27.9 333.3,100.2 224.6,282.2 180.7,236 153.4,220.5 131.7,229.9 115.3,268.2 70.8,242 
							-40,254.5 						"/>
					</defs>
					<clipPath id="SVGID_4_">
						<use xlink:href="#SVGID_3_"  style="overflow:visible;"/>
					</clipPath>
					<g class="st2">
						<circle class="st1" cx="131.1" cy="198.2" r="15.5"/>
						<path class="st1" d="M131.1,259.9c-16.1,0-31.2-6.1-42.8-17.3c-11.9-11.4-18.6-26.8-18.9-43.3l0,0
							c-0.6-34,26.6-62.2,60.6-62.9c34.1-0.6,62.2,26.6,62.9,60.6c0.6,34-26.6,62.2-60.6,62.9C131.8,259.9,131.4,259.9,131.1,259.9z
							 M131.1,153.4c-0.3,0-0.5,0-0.8,0c-24.7,0.4-44.4,20.9-43.9,45.6l0,0c0.2,12,5.1,23.1,13.7,31.4s19.9,12.7,31.9,12.5
							c24.7-0.4,44.4-20.9,43.9-45.6C175.4,173,155.4,153.4,131.1,153.4z"/>
						<path class="st1" d="M131,318.2c-31.2,0-60.7-11.9-83.2-33.6c-23.1-22.2-36.1-52.2-36.7-84.2l0,0c-0.6-32,11.3-62.4,33.6-85.5
							s52.2-36.1,84.2-36.7c66.2-1.2,121,51.6,122.2,117.8c0.6,32-11.3,62.4-33.6,85.5c-22.2,23.1-52.2,36.1-84.2,36.7
							C132.5,318.2,131.8,318.2,131,318.2z M131.1,105.2c-0.6,0-1.1,0-1.7,0c-24.8,0.5-48,10.6-65.3,28.4
							c-17.2,17.9-26.5,41.4-26,66.2l0,0c0.5,24.8,10.5,48,28.4,65.3c17.9,17.2,41.4,26.5,66.2,26c24.8-0.5,48-10.5,65.3-28.4
							s26.5-41.4,26-66.2C223.1,145.8,181.6,105.2,131.1,105.2z"/>
					</g>
				</g>
				<g>
					<defs>
						<polygon id="SVGID_5_" points="370.4,531 12.7,547.2 39.6,336.9 98.3,361.8 129.5,365.1 145.7,347.8 145.4,306.1 196.6,312.3 
							293.2,256.6 						"/>
					</defs>
					<clipPath id="SVGID_6_">
						<use xlink:href="#SVGID_5_"  style="overflow:visible;"/>
					</clipPath>
					<g class="st3">
						<circle class="st1" cx="158.9" cy="376.6" r="15.5"/>
						<path class="st1" d="M158.9,438.4c-7.3,0-14.5-1.3-21.6-3.9c-15.5-5.8-27.8-17.2-34.6-32.2c-14.2-31-0.5-67.7,30.4-81.8
							c15-6.9,31.8-7.5,47.2-1.7c15.5,5.8,27.8,17.2,34.6,32.2l0,0c14.2,31,0.5,67.7-30.4,81.8C176.4,436.5,167.7,438.4,158.9,438.4
							z M158.8,331.9c-6.2,0-12.5,1.3-18.6,4.1c-22.4,10.3-32.3,36.9-22.1,59.3c5,10.9,13.9,19.1,25.1,23.3
							c11.2,4.2,23.4,3.7,34.2-1.3c22.4-10.3,32.3-36.9,22.1-59.3l0,0C192.1,341.6,175.8,331.9,158.8,331.9z"/>
						<path class="st1" d="M159.1,496.6c-45.5,0-89.1-26-109.3-70c-13.3-29.1-14.5-61.7-3.4-91.8s33.4-53.9,62.5-67.3
							c60.2-27.5,131.5-1,159.1,59.2l0,0c13.3,29.1,14.5,61.7,3.4,91.8c-11.2,30-33.4,53.9-62.5,67.3
							C192.7,493.1,175.7,496.6,159.1,496.6z M158.7,283.6c-12.9,0-26.1,2.7-38.6,8.4c-22.6,10.3-39.8,28.9-48.5,52.1
							c-8.7,23.3-7.7,48.5,2.6,71.1c21.3,46.6,76.6,67.2,123.3,45.9c22.6-10.3,39.8-28.9,48.5-52.1c8.7-23.3,7.7-48.5-2.6-71.1l0,0
							C227.8,303.8,194,283.6,158.7,283.6z"/>
					</g>
				</g>
				<path class="st1" d="M229,315.3c-1.2-1-29.4-24.6-24.1-61.4c1-7.4,7.9-12.5,15.3-11.5c7.4,1,12.5,7.9,11.5,15.3
					c-3.1,21.6,13.9,36.2,14.6,36.8l-8.6,10.4L229,315.3z"/>
			</g>
			<g>
				<path class="st1" d="M222.1,142.8c0,0,5.7,21.8,83.5,18.6s65.9-15.3,108.5,22.2S522.7,308,522.7,308s-18.7,74.6-73.8,76
					c-55.1,1.4-84.3-3.9-124.4-26.4s-29.7-40.2-53-39.6s-23.3,0.6-23.3,0.6l-37-56.4l25.6-77.1L222.1,142.8z"/>
				<path class="st4" d="M277,265.9c12.5-35.7,32.3-106.1,85.3-108.7c53-2.6,93,68.3,106.1,83.8c13.1,15.6,21.6,27,28.7,17.8
					c7.1-9.2,7.1-13.2,0.3-26.3c-6.9-13.1-27.6-37.3-12.6-34.1c15,3.2,61.5,41.7,69.1,78.8c7.6,37.1-6.1,95.7-66.2,107.7
					s-186.2-73-200-92.6C274.1,272.6,277,265.9,277,265.9z"/>
				<path class="st1" d="M341.8,254.3c5.6-7.4,40.3-29,61.8-24.3c21.4,4.7,60.9,56.2,72.8,61.8c11.9,5.6,26.9,4.8,26.9,10.3
					c-0.1,5.5-1.2,21-14.7,21.3s-49,3-75.4-12.8c-26.3-15.8-71.6-37.6-71.5-47C341.8,254.3,341.8,254.3,341.8,254.3z"/>
			</g>
		</g>
		<g>
			<g>
				<g>
					<defs>
						<polygon id="SVGID_7_" points="-492.2,-20.3 -157.8,107.9 -266.5,289.9 -310.4,243.7 -337.7,228.2 -359.4,237.6 -375.8,275.9 
							-420.3,249.7 -531.1,262.2 						"/>
					</defs>
					<clipPath id="SVGID_8_">
						<use xlink:href="#SVGID_7_"  style="overflow:visible;"/>
					</clipPath>
					<g class="st5">
						<circle class="st1" cx="-360" cy="205.8" r="15.5"/>
						<path class="st1" d="M-360,267.6c-33.5,0-61.1-27-61.7-60.6l0,0c-0.6-34,26.6-62.2,60.6-62.9c16.5-0.3,32.1,5.8,44,17.3
							c11.9,11.4,18.6,26.8,18.9,43.3c0.6,34-26.6,62.2-60.6,62.9C-359.3,267.6-359.6,267.6-360,267.6z M-360,161.1
							c-0.3,0-0.5,0-0.8,0c-12,0.2-23.1,5.1-31.4,13.7c-8.3,8.6-12.7,19.9-12.5,31.9l0,0c0.4,24.7,20.9,44.4,45.6,43.9
							c24.7-0.4,44.4-20.9,43.9-45.6C-315.7,180.6-335.7,161.1-360,161.1z"/>
						<path class="st1" d="M-360,325.8c-65.2,0-118.8-52.4-119.9-117.8c-1.2-66.2,51.6-121,117.8-122.2
							c66.2-1.2,121,51.6,122.2,117.8c1.2,66.2-51.6,121-117.8,122.2C-358.6,325.8-359.3,325.8-360,325.8z M-453,207.5
							c0.9,51.3,43.4,92.2,94.7,91.3c51.3-0.9,92.2-43.4,91.3-94.7c-0.5-24.8-10.6-48-28.4-65.3c-17.9-17.2-41.4-26.5-66.2-26
							c-24.8,0.5-48,10.6-65.3,28.4C-444.2,159.2-453.4,182.7-453,207.5z"/>
					</g>
				</g>
				<g>
					<defs>
						<polygon id="SVGID_9_" points="-120.7,538.7 -478.4,554.9 -451.5,344.6 -392.8,369.4 -361.6,372.7 -345.4,355.4 -345.7,313.8 
							-294.5,320 -197.9,264.2 						"/>
					</defs>
					<clipPath id="SVGID_10_">
						<use xlink:href="#SVGID_9_"  style="overflow:visible;"/>
					</clipPath>
					<g class="st6">
						<circle class="st1" cx="-332.2" cy="384.3" r="15.5"/>
						<path class="st1" d="M-332.1,446c-23.4,0-45.9-13.4-56.2-36c-14.2-31-0.5-67.7,30.4-81.8c31-14.2,67.7-0.5,81.8,30.4l0,0
							c14.2,31,0.5,67.7-30.4,81.8C-314.8,444.2-323.5,446-332.1,446z M-332.3,339.5c-6.2,0-12.5,1.3-18.6,4.1
							c-22.4,10.3-32.3,36.9-22.1,59.3c10.3,22.4,36.9,32.3,59.3,22.1c22.4-10.3,32.3-36.9,22.1-59.3h0
							C-299,349.2-315.3,339.5-332.3,339.5z"/>
						<path class="st1" d="M-332,504.3c-45.5,0-89.1-26-109.3-70c-27.5-60.2-1-131.5,59.2-159.1c60.2-27.5,131.5-1,159.1,59.2
							s1,131.5-59.2,159.1C-298.4,500.8-315.3,504.3-332,504.3z M-332.4,291.3c-12.9,0-26.1,2.7-38.6,8.4
							c-46.6,21.3-67.2,76.6-45.9,123.3s76.6,67.2,123.3,45.9c46.6-21.3,67.2-76.6,45.9-123.3C-263.3,311.5-297.1,291.3-332.4,291.3
							z"/>
					</g>
				</g>
				<path class="st1" d="M-253.5,326c-3,0-6-1-8.6-3.1c-1.2-1-29.4-24.6-24.1-61.4c1-7.4,7.9-12.5,15.3-11.5
					c7.4,1,12.5,7.9,11.5,15.3c-3.1,21.6,14.4,36.6,14.5,36.8c5.8,4.7,6.6,13.2,1.9,19C-245.7,324.3-249.6,326-253.5,326z"/>
			</g>
			<g>
				<path class="st1" d="M-269,150.4c0,0,5.7,21.8,83.5,18.6s65.9-15.3,108.5,22.2S31.6,315.7,31.6,315.7s-18.7,74.6-73.8,76
					c-55.1,1.4-84.3-3.9-124.4-26.4c-40.1-22.5-29.7-40.2-53-39.6c-23.3,0.6-23.3,0.6-23.3,0.6l-37-56.4l25.6-77.1L-269,150.4z"/>
				<path class="st4" d="M-214.1,273.6c12.5-35.7,32.3-106.1,85.3-108.7c53-2.6,93,68.3,106.1,83.8s21.6,27,28.7,17.8
					s7.1-13.2,0.3-26.3c-6.9-13.1-27.6-37.3-12.6-34.1c15,3.2,61.5,41.7,69.1,78.8s-6.1,95.7-66.2,107.7s-186.2-73-200-92.6
					C-217,280.2-214.1,273.6-214.1,273.6z"/>
				<path class="st1" d="M-149.3,262c5.6-7.4,40.3-29,61.8-24.3s60.9,56.2,72.8,61.8s26.9,4.8,26.9,10.3c-0.1,5.5-1.2,21-14.7,21.3
					s-49,3-75.4-12.8s-71.6-37.6-71.5-47C-149.3,262-149.3,262-149.3,262z"/>
			</g>
		</g>
	</g>
</g>
</svg>
