<?xml version="1.0" encoding="utf-8"?>
<!-- Generator: Adobe Illustrator 19.1.0, SVG Export Plug-In . SVG Version: 6.00 Build 0)  -->
<svg version="1.1" xmlns="http://www.w3.org/2000/svg" xmlns:xlink="http://www.w3.org/1999/xlink" x="0px" y="0px"
	 viewBox="0 0 371 310.2" style="enable-background:new 0 0 371 310.2;" xml:space="preserve">
<style type="text/css">
	.st0{clip-path:url(#SVGID_2_);fill:none;stroke:#BC6CDD;stroke-width:16;stroke-miterlimit:10;}
	
		.st1{clip-path:url(#SVGID_2_);fill:#75CCB1;stroke:#BC6CDD;stroke-width:16;stroke-linecap:round;stroke-linejoin:round;stroke-miterlimit:10;}
	.st2{clip-path:url(#SVGID_2_);}
	.st3{fill:#BC6CDD;}
</style>
<g id="Layer_2">
</g>
<g id="Layer_3">
	<g>
		<defs>
			<rect id="SVGID_1_" x="0.5" y="-15.3" width="370" height="333"/>
		</defs>
		<clipPath id="SVGID_2_">
			<use xlink:href="#SVGID_1_"  style="overflow:visible;"/>
		</clipPath>
		<path class="st0" d="M79.5-15.3"/>
		<path class="st1" d="M365.5,157.7c-40,0-39-26-72-65.5s-75-80.5-105-81.5s-61,36-103,88s-78,74-107,75l4,129h405
			C387.5,302.7,405.5,157.7,365.5,157.7z M24.5,262.7L183.9,63.6l166.6,193.1L24.5,262.7z"/>
		<g class="st2">
			<circle class="st3" cx="192.5" cy="241.4" r="7.2"/>
			<g>
				<circle class="st3" cx="248.7" cy="217.4" r="7.2"/>
				<circle class="st3" cx="223.8" cy="236.9" r="7.2"/>
				<circle class="st3" cx="195" cy="192.7" r="36"/>
				<circle class="st3" cx="255.8" cy="236.9" r="7.2"/>
				<circle class="st3" cx="278.7" cy="217.4" r="7.2"/>
				<circle class="st3" cx="285.8" cy="236.9" r="7.2"/>
				<circle class="st3" cx="307" cy="229.7" r="7.2"/>
				<circle class="st3" cx="251.3" cy="192.7" r="7.2"/>
				<circle class="st3" cx="271.5" cy="192.7" r="7.2"/>
				<circle class="st3" cx="163.3" cy="241.4" r="7.2"/>
				<circle class="st3" cx="156.2" cy="224.6" r="7.2"/>
				<circle class="st3" cx="139.3" cy="203.1" r="7.2"/>
				<circle class="st3" cx="132" cy="224.6" r="7.2"/>
				<circle class="st3" cx="127.5" cy="244.1" r="7.2"/>
				<circle class="st3" cx="96" cy="244.1" r="7.2"/>
				<circle class="st3" cx="103.3" cy="217.4" r="7.2"/>
				<circle class="st3" cx="72" cy="244.1" r="7.2"/>
				<circle class="st3" cx="115.2" cy="199.9" r="7.2"/>
				<circle class="st3" cx="136.7" cy="182.1" r="7.2"/>
				<circle class="st3" cx="110.5" cy="178.4" r="7.2"/>
				<circle class="st3" cx="129.5" cy="160.6" r="7.2"/>
				<circle class="st3" cx="156.2" cy="146.1" r="7.2"/>
				<circle class="st3" cx="255.8" cy="167.7" r="7.2"/>
				<circle class="st3" cx="231" cy="146.1" r="7.2"/>
				<circle class="st3" cx="202.2" cy="142.7" r="7.2"/>
				<circle class="st3" cx="177.7" cy="138.9" r="7.2"/>
				<circle class="st3" cx="212.6" cy="124.6" r="7.2"/>
				<circle class="st3" cx="190" cy="114.7" r="7.2"/>
				<circle class="st3" cx="159" cy="117.4" r="7.2"/>
				<circle class="st3" cx="184.8" cy="93.4" r="7.2"/>
			</g>
		</g>
	</g>
</g>
</svg>
