<?xml version="1.0" encoding="utf-8"?>
<!-- Generator: Adobe Illustrator 19.1.0, SVG Export Plug-In . SVG Version: 6.00 Build 0)  -->
<svg version="1.1" id="Layer_2" xmlns="http://www.w3.org/2000/svg" xmlns:xlink="http://www.w3.org/1999/xlink" x="0px" y="0px"
	 viewBox="0 0 538.1 466.7" style="enable-background:new 0 0 538.1 466.7;" xml:space="preserve">
<style type="text/css">
	.st0{fill:#F4F490;}
	.st1{fill:none;stroke:#86BAF2;stroke-width:8;stroke-linecap:round;stroke-linejoin:round;stroke-miterlimit:10;}
	.st2{fill:#86BAF2;}
	.st3{fill:#8BB8E3;}
</style>
<polygon class="st0" points="0,0 538.1,1.3 267.9,466.7 "/>
<g>
	<g>
		<g>
			<path class="st1" d="M290.4,70.9c4.7-4.3,9.6-7.5,13.7-10c1.4-0.9,2.8-1.7,4-2.4c3.4-2.1,5.9-4,6.7-6.1c2-5,10-21.5,22-23.5
				s17,3.5,15.5,9.5s-3,19-17.5,20c0,0-9.5,3.5-23,1.5s-13.5,7-13.5,7"/>
			<line class="st1" x1="308.7" y1="81.8" x2="335.1" y2="91.1"/>
			<line class="st1" x1="301.2" y1="91.1" x2="326.2" y2="105.9"/>
			<path class="st1" d="M321.9,115.8c0,0-22.2-11.9-41.2-16.4"/>
			<line class="st1" x1="292.7" y1="112.4" x2="301.3" y2="122.4"/>
			<line class="st1" x1="280.7" y1="117.4" x2="280.7" y2="129.4"/>
			<path class="st1" d="M267.5,115.8"/>
			<path class="st1" d="M269.7,112.4l-2.2,15.7c0,0,2.7,3.8,2.2,9.8s-3.8,10.7-3.8,10.7"/>
			<path class="st1" d="M256.2,101.9c0,0-2,7.9-2,13.9c0,6.1,1,9.8,1,9.8"/>
			<path class="st1" d="M246.7,94.4c-3.5,7.5-2.4,28-2.4,28"/>
			<path class="st1" d="M234.7,91.1c-4,9.8-2.5,24.7-2.5,24.7"/>
			<path class="st1" d="M256.2,128.1c0,0,2.4,7.8-24.3,1.3c-1.7-0.4-3.2-0.8-4.8-1.3c-12.8-3.8-21.3-9.3-26.2-14.4
				c-4-4.1-5.6-7.9-5.2-10.3c1-5.6,13.5-17.1,6-32.6s-17.5-21-26.5-14.5s-9.5,16.4-7.5,25.5s6,16.5,17.5,24l12,6.5"/>
		</g>
		<g>
			<path class="st1" d="M253.9,59.4v-5.5c0,0,1.4-2,0-7c-1.4-5-11.6-12-20.6-12.5s-12.5,1.5-14.5,8s-3,10,6,18s18,0.5,26.5-2.5
				s16,0,32.5,9c4.1,2.2,6,5.4,6.5,8.9c1.5,10.4-9.5,23.6-9.5,23.6s-10.5-4-20-15s-25.5-10.5-31.5-5s-16,16-8.5,28.5
				s43.5,22,63,21.5s37.5-10.5,44-19.5c3-4.1,5.5-11.7,7.4-18.8c2.3-8.5,3.6-16.2,3.6-16.2"/>
			<path class="st1" d="M227.7,132c0,0-14-4.1-21,11.9s-9,23.5-12,38.5s-10.5,17.5-16,21s-19.5-2-18-14s5-18.3,17-21.4
				s16.4,0,16.4,0"/>
			<path class="st1" d="M254.2,158.2c0,0,6.7-17.1,5-26.7"/>
			<path class="st1" d="M244.2,162.5c0,0-2.9-24.2,4.1-30.6"/>
			<path class="st1" d="M230.2,173.5c0,0,1.4-12.3,1.7-18.7"/>
			<path class="st1" d="M223.6,179.2c0,0-4-6.8-6.2-11.2"/>
			<path class="st1" d="M283.7,129.4c0,0,0.5,22.2-7.2,31.2s-5,6.7-15.7,10c-10.7,3.3-11.5,2-16.7,8.7c-5.3,6.7-6.9,8-16.4,11.7
				c-9.5,3.7-16.2-2.7-16.2-2.7"/>
			<path class="st1" d="M279.2,160.7c0,0,0,31.5-15.7,39.2c-15.7,7.7-32,2.3-46.2,10c-14.1,7.7-15.1,18.7-4.1,24.3
				c11,5.7,19.7,6,27.7,0s13-17.7,15.3-25c2.3-7.3,5.3-4.8,5.3-4.8"/>
			<path class="st1" d="M281.2,151c0,0-5.3,36.2,7.4,45.9c12.7,9.7,32.7,8,37.7,12.7s8,18,3,24.7c-5,6.7-7.3,8.7-18.3,6.7
				s-11.7-8.7-13.9-21c-2.1-12.3-4.3-18-4.3-18"/>
			<path class="st1" d="M283.8,134.5c0,0,24.5-3.7,40.2,10.3c15.7,14,23,34,20.3,42.7c-2.7,8.7-10.3,17.2-26.3,8.8
				c-16-8.4-19.7-12.4-27.5-25.1c-7.8-12.7-10.3-16.3-10.3-16.3"/>
			<path class="st1" d="M283,141.8c0,0,2.8,7.9,14,9.2c11.2,1.2,16.7,0,16.7,0"/>
			<path class="st1" d="M280.7,152.5c0,0,6.2,10.1,20.5,11.8c14.3,1.7,20.2-1.7,20.2-1.7"/>
			<path class="st1" d="M291.8,173.5c0,0,12.4,4,21.9,3.3c9.5-0.7,12.5-1.6,12.5-1.6"/>
			<path class="st1" d="M302.9,187c0,0,7.7,2.9,15.7,2.6s10-7,10-7"/>
			<path class="st1" d="M303.8,125.6c0,0,11.1,0.5,22.1,3.2c6.6,1.6,13.2,4.1,17.3,7.7c11,9.7,20.7,21.3,21,26
				c0.3,4.7,5.7,8.7,11.3,12.7s8.7,15.8,3.3,24.4c-5.3,8.6-17,17.6-20.7,8.6c-3.7-9-5-19-1.3-29c3.7-10,3.8-10.1,2.7-18.5"/>
			<path class="st1" d="M331.8,126.9c0,0,6.8-4.3,23.1-18.5c16.3-14.2,24.9-23.8,26.8-31.8s0.2-17-7.1-18s-13.3,0-17.5,7.7
				s-5.5,22.6-6.5,32.3s-2.3,12.4-2.3,12.4"/>
		</g>
	</g>
	<g>
		<circle class="st2" cx="181.4" cy="72" r="5.8"/>
		<circle class="st2" cx="184.7" cy="87.7" r="5.8"/>
		<circle class="st2" cx="232" cy="49.7" r="5.8"/>
		<circle class="st2" cx="335.1" cy="45" r="5.8"/>
		<circle class="st2" cx="366.1" cy="77.9" r="5.8"/>
		<circle class="st2" cx="366.1" cy="192" r="5.8"/>
		<circle class="st2" cx="313.7" cy="222.9" r="5.8"/>
		<circle class="st2" cx="230.2" cy="222.9" r="5.8"/>
		<circle class="st3" cx="175.6" cy="186.1" r="5.8"/>
	</g>
</g>
</svg>
