<?xml version="1.0" encoding="utf-8"?>
<!-- Generator: Adobe Illustrator 19.1.0, SVG Export Plug-In . SVG Version: 6.00 Build 0)  -->
<svg version="1.1" id="Layer_1" xmlns="http://www.w3.org/2000/svg" xmlns:xlink="http://www.w3.org/1999/xlink" x="0px" y="0px"
	 viewBox="0 0 538.1 466.7" style="enable-background:new 0 0 538.1 466.7;" xml:space="preserve">
<style type="text/css">
	.st0{fill:#8BB8E3;}
	.st1{fill:none;stroke:#D8DB26;stroke-width:8;stroke-linecap:round;stroke-miterlimit:10;}
	.st2{fill:none;stroke:#D9DB26;stroke-width:7;stroke-linecap:round;stroke-linejoin:round;stroke-miterlimit:0;}
	.st3{fill:none;stroke:#8C5522;stroke-width:7;stroke-linecap:round;stroke-linejoin:round;stroke-miterlimit:0;}
</style>
<polygon class="st0" points="0,466.7 538.1,465.4 267.9,0 "/>
<g>
	<path class="st1" d="M117.3,423.3c2.1-40-4.1-36,0-54s4.1-18,4.1-18"/>
	<path class="st2" d="M161.4,423.3c4.5-13.5,6-11.5,2.5-27s2-24.5,5-40s3.5-39-3.8-51s-2.8-11.5-3.8-15.5s-0.5-8-0.5-8"/>
	<path class="st2" d="M191.4,423.3c0,0-2-7,0-19s2-17,2-17"/>
	<path class="st2" d="M195.9,370.8c0,0-1.5-2,2-18.2s6-16.2,4.5-25.8s0.4-21.5,0.4-21.5"/>
	<path class="st2" d="M230.4,431.8c0,0-2.5-2.5,0-15.5s5-7.5,4-20.5s1-11.5,0.2-27s1.3-8.5,4.3-30.8s2-14.2,0-30.2s2.3-17,1.9-36.5
		s-3.1,3,0-28s1.1-11.9,3.1-37.9s5.5-18.4,4-31.7c-1.5-13.3-1.5-13.3-1.5-13.3"/>
	<path class="st2" d="M245.9,423.3c0.5-3.5-1.3-3.5,2.4-28c3.6-24.5,5.1-25,4.6-42.8s-1.3-11.8,0.1-30.2c1.4-18.5,4.9-27,6.4-32.5
		s5.5-8,5.5-8"/>
	<path class="st2" d="M264.9,433.8c0,0,5-9,4.5-17.5s-2.9,2.5,0-13.5s-1.5-9,0-21.5s0-0.5,4-21s4-20.5,4-20.5"/>
	<path class="st2" d="M298.3,449.8c0,0,8.6-11.5,11.6-34s1.5-23,7-45s9-24.5,8-41.5s-10.5-24-10.5-24"/>
	<path class="st2" d="M374.4,449.8c0,0,8.7-33.8,14-54.5c5.3-20.7,9.3-4,12.7-33.3c3.3-29.3,3.3-34,3.3-34"/>
	<path class="st2" d="M418.4,296.1c0,0,5.3,14.6,0,25.2c-5.3,10.7-14,18.5-14,18.5"/>
	<path class="st2" d="M312,314.8c-1.4-6.6,2.6-13.2,3.1-20c0.2-2.3-0.3-5-2.4-6c-1.2-0.6-2.6-0.5-3.7-1c-1.2-0.5-1.9-2.4-0.8-3.1
		c0.9-1.3,1.8-2.6,2.8-3.8"/>
	<path class="st2" d="M327.4,303.6c-2.3-0.2-4.1-2-5.1-4.1c-1-2.1-1.2-4.4-1.4-6.6c-0.1-1.3-0.2-2.7,0.3-3.9
		c0.5-1.2,1.9-2.2,3.2-1.7"/>
	<path class="st2" d="M325,295.4c1.9-0.6,4-0.1,6,0.1c2,0.1,4.3-0.2,5.4-1.9c0.8-1.2,0.7-2.7,0.7-4.2c0-1.4,0.2-3,1.2-4
		c1.1-1,3.2-0.6,3.4,0.8c0.8,0,1.5,0,2.3,0.1"/>
	<path class="st2" d="M238.4,115.3c0-4,0-8,0-12"/>
	<path class="st2" d="M245,161.9c-5.4-4.3-7.9-11.9-6.2-18.5"/>
	<path class="st2" d="M260,171.8c4.1-3.5,6-8.9,7.6-14c2.5-7.7,5-15.4,7.5-23.2c-1.6-0.2-3.2-0.3-4.7-0.5"/>
	<path class="st2" d="M231.2,122.8c-3.8,2.4-3.2,8.7,0.4,11.5c3.5,2.8,8.6,2.7,12.9,1.7c-0.4-4.7,3.2-14,2.8-18.6"/>
	<path class="st2" d="M258,158.9c-1.2-1.1-2.3-2.2-3.5-3.4c-1.8-1.7-3.7-3.7-4.1-6.2s1.8-5.4,4.3-4.7c-1.6-1.2-2.5-3.3-2.3-5.3"/>
	<path class="st2" d="M255.1,129.7c1.9-3.7,3.9-7.8,3.2-12c-1.3-7.5-10.3-10.6-17.7-12.2"/>
	<path class="st3" d="M109.8,352.1c-3.4-5.7-3.3-13.4,0.3-19"/>
	<path class="st3" d="M118.4,342.3c-0.2-5.4,1.7-10.8,5.2-14.9"/>
	<path class="st3" d="M125.4,316.3c0-4.7,0-9.3,0-14"/>
	<path class="st3" d="M182.4,283.3c0.1,3.4,1.6,6.7,4,9c0.9-3.8,6.2-4.8,6.2-8.7c0-2.5-0.2-5.3-2.1-7c-0.8-0.8-1.8-1.2-2.8-1.8
		c-2.9-2-4.2-5.6-4.7-9c-0.7-4.7-0.1-9.7,2.4-13.7c2.5-4,7.1-6.9,11.8-6.6"/>
	<path class="st3" d="M194.9,267.6c4.2-5.8,8.3-11.6,12.5-17.3"/>
	<path class="st3" d="M203.8,298.4c3.1-10,3.9-20.7,2.4-31.1"/>
	<path class="st3" d="M194.6,297.4c2.7-4.2,4.4-9.1,4.9-14.1"/>
	<path class="st3" d="M211.9,295.4c1.8-7.3,2.4-14.8,3-22.3c0.8-10,1.6-20,2.5-30c0.3-3.4,0.2-7.7-2.9-9.3"/>
	<path class="st3" d="M267.6,269.4c2.1-2.9,4.7-5.4,7.8-7.2"/>
	<path class="st3" d="M264.4,254.3c-0.9-8.2-2.8-16.3-5.8-24.1"/>
	<path class="st3" d="M259.9,219.2c-1.6-8.9,2.6-18.6,10.2-23.5"/>
	<path class="st3" d="M271.9,238.2c-2.2-12-1-24.6,3.2-36"/>
	<path class="st3" d="M282.1,193c3.1-3.6,7-6.6,11.4-8.4"/>
	<path class="st3" d="M278.4,239c4.1-1,7-4.9,7.9-9.1s0.3-8.4-0.4-12.6"/>
	<path class="st3" d="M287,250.2c1.3-5,4.4-9.6,8.6-12.7"/>
	<path class="st3" d="M358.4,282.3c0.8-4.2,1.2-8.5,1.2-12.8c0-1.2-0.1-2.5-0.8-3.5c-0.7-1-2.4-1.3-3.2-0.4"/>
	<path class="st3" d="M368.8,315.4c2.1-7.8,2.5-16.1,1.4-24.1"/>
	<path class="st3" d="M375.4,322.3c3.2-6.2,5.2-13,5.8-19.9"/>
	<path class="st3" d="M386.5,312.4c3.2-1.8,5.8-4.5,7.4-7.7c-0.8-0.1-1.7-0.2-2.5-0.4"/>
	<path class="st3" d="M373,337.8c8-4.4,16.7-9.8,18.7-18.7"/>
</g>
</svg>
