<?xml version="1.0" encoding="utf-8"?>
<!-- Generator: Adobe Illustrator 19.1.0, SVG Export Plug-In . SVG Version: 6.00 Build 0)  -->
<svg version="1.1" id="Layer_1" xmlns="http://www.w3.org/2000/svg" xmlns:xlink="http://www.w3.org/1999/xlink" x="0px" y="0px"
	 viewBox="0 0 163.1 171.8" style="enable-background:new 0 0 163.1 171.8;" xml:space="preserve">
<style type="text/css">
	.st0{clip-path:url(#SVGID_2_);}
	.st1{fill:none;stroke:#D9DB26;stroke-width:6;stroke-linecap:round;stroke-linejoin:round;stroke-miterlimit:0;}
	.st2{fill:#D9DB26;}
</style>
<g>
	<defs>
		<rect id="SVGID_1_" width="163.1" height="171.8"/>
	</defs>
	<clipPath id="SVGID_2_">
		<use xlink:href="#SVGID_1_"  style="overflow:visible;"/>
	</clipPath>
	<g class="st0">
		<path class="st1" d="M-21.3,20.1C-6.9,13.5,15.6,5.3,43.4,5.5c27.9,0.1,33.6,8.5,72,13.3c41.8,5.2,73.8,0.1,82-1.3
			c29.6-5.2,33.3-11.4,56-15.3c21.3-3.7,52.6-4.2,94,12"/>
		<path class="st1" d="M-19,164.8c14.3-6.6,36.9-14.8,64.7-14.7c27.9,0.1,33.6,8.5,72,13.3c41.8,5.2,73.8,0.1,82-1.3
			c29.6-5.2,33.3-11.4,56-15.3c21.3-3.7,52.6-4.2,94,12"/>
		<g>
			<circle class="st2" cx="124.9" cy="128.3" r="6.8"/>
			<circle class="st2" cx="115.1" cy="112.3" r="6.8"/>
			<circle class="st2" cx="135.1" cy="114.6" r="6.8"/>
			<circle class="st2" cx="144.4" cy="135.1" r="6.8"/>
			<circle class="st2" cx="126.4" cy="148.8" r="6.8"/>
			<circle class="st2" cx="108.3" cy="142" r="6.8"/>
			<circle class="st2" cx="103.1" cy="124.6" r="6.8"/>
		</g>
		<g>
			<circle class="st2" cx="88.5" cy="82.2" r="6.8"/>
			<circle class="st2" cx="78.7" cy="66.2" r="6.8"/>
			<circle class="st2" cx="98.7" cy="68.6" r="6.8"/>
			<circle class="st2" cx="108.1" cy="89.1" r="6.8"/>
			<circle class="st2" cx="90.1" cy="102.7" r="6.8"/>
			<circle class="st2" cx="71.9" cy="95.9" r="6.8"/>
			<circle class="st2" cx="66.7" cy="78.6" r="6.8"/>
		</g>
		<g>
			<circle class="st2" cx="40.4" cy="47.1" r="6.8"/>
			<circle class="st2" cx="30.6" cy="31.1" r="6.8"/>
			<circle class="st2" cx="50.6" cy="33.5" r="6.8"/>
			<circle class="st2" cx="60" cy="54" r="6.8"/>
			<circle class="st2" cx="42" cy="67.6" r="6.8"/>
			<circle class="st2" cx="23.8" cy="60.8" r="6.8"/>
			<circle class="st2" cx="18.6" cy="43.5" r="6.8"/>
		</g>
	</g>
</g>
</svg>
