<?xml version="1.0" encoding="utf-8"?>
<!-- Generator: Adobe Illustrator 19.1.0, SVG Export Plug-In . SVG Version: 6.00 Build 0)  -->
<svg version="1.1" xmlns="http://www.w3.org/2000/svg" xmlns:xlink="http://www.w3.org/1999/xlink" x="0px" y="0px"
	 viewBox="0 0 233.4 198.2" style="enable-background:new 0 0 233.4 198.2;" xml:space="preserve">
<style type="text/css">
	.st0{fill:none;stroke:#D9DB25;stroke-width:7;stroke-linecap:round;stroke-linejoin:round;stroke-miterlimit:10;}
	.st1{fill:#E570B3;stroke:#D9DB25;stroke-width:5;stroke-linecap:round;stroke-linejoin:round;stroke-miterlimit:10;}
	.st2{fill:none;stroke:#D9DB25;stroke-width:5;stroke-linecap:round;stroke-linejoin:round;stroke-miterlimit:10;}
	.st3{fill:#DADB25;stroke:#D9DB25;stroke-width:3;stroke-linecap:round;stroke-linejoin:round;stroke-miterlimit:10;}
	.st4{fill:#E570B3;}
</style>
<g id="Layer_1">
	
		<image style="display:none;overflow:visible;" width="542" height="500" xlink:href="../../../../../Desktop/Screen Shot 2015-08-23 at 1.42.20 PM.png"  transform="matrix(0.4921 8.832555e-02 -8.832555e-02 0.4921 12.5916 -55.9375)">
	</image>
	<path class="st0" d="M27,188.4c0,0-6.7-10.7-2-21.7s8.3-13.4,14.3-26.7s6-13.1,4.3-23s-2.9-16.7-0.9-22.3s3.7-9.3,3.7-9.3"/>
	<path class="st1" d="M50.4,118c0,0,7.3-9.7,14.7-10c7.3-0.3,15.7-0.3,12.7,5c-3,5.3-6,8.3-13.4,9.7S50.4,118,50.4,118z"/>
	<path class="st1" d="M39,151.4c0,0,3.3-6.3,13.7-5.7c10.3,0.7,18,2.3,14,5.7c-4,3.3-5.3,6.7-8.3,8c-3,1.3-11.3-0.3-15.7-2.3
		S39,151.4,39,151.4z"/>
	<path class="st1" d="M29.7,120c0,0-1.3-8.6-6.3-12.1s-11.7-0.8-16.3,0s-1.3,10.5,3,12.1c4.3,1.7,8.7,3.7,13.3,2.9
		S29.7,120,29.7,120z"/>
	<path class="st1" d="M23.4,141.7c0,0-0.3,3-3.7,9.7c-3.3,6.7-6,7.3-8.7,8.5s-8.3,0-8.3,0S1,158,7,151C13,144,23.4,141.7,23.4,141.7
		z"/>
	<path class="st2" d="M127.4,88.7c-2.3,7.7-2,13.1,0,19.2c2,6.1,0,16.1-0.8,21.8c-0.9,5.7,0.8,9.3-2.7,18.3c-3.5,9-2.5,7.7-3.2,17
		s0.7,11.3-2.7,18.3c-3.3,7,0,12.3,0,12.3"/>
	<path class="st3" d="M135,115.4c0,0-5-9.4,6.3-16.4c11.3-7,14.3-10.3,13.7-4c-0.7,6.3,1.7,13-5.3,17S135,115.4,135,115.4z"/>
	<path class="st3" d="M131,135c1-5,13-16.7,18.7-16c5.7,0.7,12,2.6,9.3,8c-2.7,5.3-7.4,10.7-13.7,11.3c-6.3,0.7-14.3-1.5-14.3-1.5"
		/>
	<path class="st3" d="M118.7,102.9c-1.2,3.8-0.2,6-7,8.5s-5.2,4.8-11.8,1c-6.7-3.8-12.7-6.5-9-9.5c3.7-3,8-5.7,12.7-6.7
		c4.7-1,8.5-1,11.7,1.5S118.7,102.9,118.7,102.9z"/>
	<path class="st3" d="M112.4,123.1c4.5,4.3,7,10.1,4.2,11.4s-1.4,2.7-10.2,1.3c-8.8-1.3-9.3-0.7-11.5-4.3c-2.2-3.7-7.1-3.9-5.1-8.4
		c1.9-4.6,2.6-6.7,7.9-5.1c5.3,1.7,7.3,2.8,10,3C110.4,121.2,112.4,123.1,112.4,123.1z"/>
	<path class="st1" d="M202.9,95.6c0.8-3.7,0.2-6.5,3.7-9.4s6.2-5,13.2-4.8c7,0.2,12.7,3.8,10.8,5.7c-1.8,1.8-5.8,6.3-10,9.3
		c-4.2,3-4.2,3.7-9.7,3.5c-5.5-0.2-8-0.4-8-2.3C202.9,95.6,202.9,95.6,202.9,95.6z"/>
	<path class="st1" d="M199.7,124.2c1-4,1.5-8.2,8.2-11c6.7-2.8,18.7-6.3,17.3-0.8s-4,8.3-8.3,11.8c-4.3,3.5-5,4.3-11.3,3.8
		C199.2,127.5,199.7,124.2,199.7,124.2z"/>
	<path class="st1" d="M200.4,146.9c7.3-4,11.3-7,19-4.7c7.7,2.3,9.7,6.5,5.9,9.7c-3.8,3.2-5.6,4.2-13.6,5c-8,0.8-8.7-0.5-11.3-3.8
		C197.7,149.7,200.4,146.9,200.4,146.9z"/>
	<path class="st1" d="M189,98.7c0-5.8,0-9.7-4.3-13.8c-4.3-4.2-12.5-5.5-12.5-3.5s-1.2,4.3,3.3,10.3C180,97.7,189,98.7,189,98.7z"/>
	<path class="st1" d="M186.7,128.7c0,0,1.8-6.6-4.7-9.7c-6.5-3.1-10-3.6-10-3.6s-1,6.4,3.1,10.4S186.7,128.7,186.7,128.7z"/>
	<path class="st1" d="M183.2,151.7c0,0,2.5-4-3.8-5.7s-11.2-1.8-10.7,1.8c0.5,3.7,1.5,6.7,7.5,6.5
		C182.2,154.2,183.2,151.7,183.2,151.7z"/>
	<path class="st2" d="M197,71c0,7.2,0.3,14.8,0,22.8c-0.3,8-3.5,21.2-3.7,29.7c-0.2,8.5,1.2,9.7-1.3,22.8
		c-2.5,13.2-8.5,17.8-9.2,26.3c-0.7,8.5,0,15.8,0,15.8"/>
	<path class="st1" d="M319.9,77.5"/>
	<path class="st4" d="M44.7,75.7c0,0-32.7-25-9.8-46.3S52,11,56,19.4s14,19,6.7,37.3S44.7,75.7,44.7,75.7z"/>
	<path class="st4" d="M136.4,4c0,0,15.3,18.3,17,32.7c1.7,14.3,0,23.3-8,31c-8,7.7-6,9-19.6,6S103,45,106,35.4s12-19.3,15-24
		S138,4,138,4"/>
	<path class="st4" d="M205,4c0,0,10,3.3,11.8,28.7c1.8,25.3-1.8,24-7.5,28.7c-5.7,4.7-4.7,5-12.2,4.3c-7.5-0.7-9-9-10.2-16.7
		s3.1-21.3,8.1-29S205,4,205,4z"/>
</g>
<g id="Layer_2">
	<path class="st2" d="M56.9,15.1c-0.7,5.2,0.6,10.7,3.5,15.1c1.4,2.1,3.1,3.9,4.3,6.1c3,5.2,2.9,11.8,0.9,17.4
		c-2,5.7-5.8,10.5-10.1,14.8C51,73,44.7,77.2,38.7,75.3c-3.7-1.2-6.5-4.5-7.9-8.1c-1.4-3.6-1.8-7.6-2.1-11.5c-0.2-3-0.5-6-0.7-9
		c-0.4-5.4-0.7-11.3,2.5-15.6"/>
	<path class="st2" d="M32.2,37.8c1.9-1.1,3.8-2.3,5.6-3.4c0.1,0,0.2-0.1,0.2-0.2s-0.2-0.1-0.2,0"/>
	<path class="st2" d="M43.5,28.8c0.3-0.5,0.6-1,0.9-1.5c0.4-0.6,0.8-1.3,1.4-1.7c1.3-0.9,3.1-0.5,4.3-1.5"/>
	<path class="st2" d="M50.1,35.6c1.7-1.1,3.1-2.4,4.3-4"/>
	<path class="st2" d="M52.9,42.1c-1.7,1.4-3.3,2.9-4.8,4.6c2-0.2,4-0.9,5.6-2.1"/>
	<path class="st2" d="M32.9,51.6c2.3-4.2,5.1-8.1,8.5-11.5c0.4-0.4,0.9-0.9,1.5-0.8"/>
	<path class="st2" d="M34.8,60.5c2-3.7,4.1-7.2,6.5-10.7"/>
	<path class="st2" d="M37.8,67.8c0.4-1.2,1-2.2,1.6-3.3c1.5-2.6,3.2-5,5.3-7.1c2.1-2.1,4.7-3.8,7.5-4.5"/>
	<path class="st2" d="M132,4.3c-1.2,1.1-2.5,2.2-3.8,3.3c-0.5,0.4-1,0.8-1.5,1.1c-2,1.5-4,3.1-6,4.6"/>
	<path class="st2" d="M138,14.6c-1,0.5-1.9,1.2-2.6,2.1"/>
	<path class="st2" d="M135.4,20.9c-0.3,1.7-1.1,3.2-2.3,4.5"/>
	<path class="st2" d="M145,12c2,7.6,2.1,15.7,0.1,23.4"/>
	<path class="st2" d="M151.8,34.9c-0.4,1.1-0.4,2.2-0.5,3.4c-0.1,2.1-0.1,4.2-0.2,6.3"/>
	<path class="st2" d="M150.4,50.5c-0.6,1.8-1.2,3.5-1.8,5.3c-0.6,1.6-1.1,3.2-1.9,4.7c-0.9,1.6-2,3-3.1,4.4c-0.7,0.9-1.6,1.9-2.7,2"
		/>
	<path class="st2" d="M135.9,69.9c-1.9,1.6-3.9,3.2-5.8,4.8c-0.1,0.1-0.3,0.2-0.4,0.2c-0.2,0-0.2-0.3-0.1-0.3"/>
	<path class="st2" d="M125.6,73.9c-0.3-3.1,0.4-6.3,2-9c1.6-2.7,4.2-4.8,7.1-5.9"/>
	<path class="st2" d="M140.9,53.9c1.6-2.2,2.8-4.8,3.3-7.5"/>
	<path class="st2" d="M139.6,42.5c-0.9,2.7-3.3,4.9-6.1,5.7"/>
	<path class="st2" d="M128.7,51.3c-3.2,1.2-5.8,3.4-8.4,5.6c-1.5,1.3-3.1,2.6-4.3,4.3c-1.2,1.6-2,3.6-1.9,5.6"/>
	<path class="st2" d="M111.4,56.5c1-1.7,2.6-3,4.3-4.2c2.1-1.4,4.4-2.6,6.8-3.6c0.7-0.3,1.5-0.5,2.2-0.8c1.6-0.6,3.2-1.1,4.9-1.7"/>
	<path class="st2" d="M108.1,50.2c1.8-2.3,3.8-4.5,6.4-6.1c1.7-1,3.5-1.7,5.3-2.4c2.6-1,5.1-1.9,7.7-2.9"/>
	<path class="st2" d="M135.2,37.6c3.1-1.9,5.5-4.8,6.7-8.2"/>
	<path class="st2" d="M129.5,30.8c-1.8,3.3-5.9,5.3-9.6,4.6"/>
	<path class="st2" d="M112.5,36.3c-3.6,2.9-7.4,5.7-11.3,8.2"/>
	<path class="st2" d="M128.7,23.1c-3.8,1.3-7.8,1.8-11.6,2.9c-3.8,1.1-7.7,3-9.9,6.3"/>
	<path class="st2" d="M126.1,17.9c-1.4,0.6-2.8,0.7-4.3,1c-3.7,0.6-7.3,1.9-10.5,3.7"/>
	<path class="st2" d="M200.7,8.5c-0.5,3.5-3.4,6.2-5.1,9.3c-1.8,3.2-2.3,6.9-3.5,10.3c-0.5,1.6-1.2,3.1-1.8,4.7
		c-1.2,3.5-1.5,7.2-1.8,10.8c-0.6,6.2-1,13.1,2.6,18.2"/>
	<path class="st2" d="M205,63.5c2.3-0.9,4.2-2.7,5.5-4.9c1.3-2.1,2.1-4.5,2.9-6.9c1.1-3.1,2.1-6.3,2.7-9.6
		c0.9-5.2,0.7-10.4,0.5-15.7c-0.1-2.2-0.2-4.4-0.6-6.5c-1.4-7-6.2-12.9-11.7-17.6"/>
	<path class="st2" d="M206.2,10.9c0.4,5.5,1.3,10.9,2.8,16.1c-1.4-1.6-2.8-3.3-4.2-4.9c-0.6-0.7-1.3-1.4-2.2-1.2
		c-0.3,6.5,2.1,13,6.4,17.9"/>
	<path class="st2" d="M197.7,34.8c2,3.2,3.6,6.6,4.8,10.1c0.1,0.3,0,0.7-0.3,0.6"/>
	<path class="st2" d="M204.4,55.3c-0.5-0.8-1-1.6-1.5-2.3c-0.5-0.8-1.2-1.7-2.1-1.9c-0.5-0.1-1.1,0-1.4-0.4"/>
	<path class="st2" d="M195.3,45c-1-3.1-2.1-6.1-3.2-9.2"/>
	<path class="st2" d="M199.8,60.3c-2.4-2.9-4.7-5.9-6.9-8.9"/>
</g>
</svg>
