<?xml version="1.0" encoding="utf-8"?>
<!-- Generator: Adobe Illustrator 19.1.0, SVG Export Plug-In . SVG Version: 6.00 Build 0)  -->
<svg version="1.1" id="Layer_1" xmlns="http://www.w3.org/2000/svg" xmlns:xlink="http://www.w3.org/1999/xlink" x="0px" y="0px"
	 viewBox="0 0 109.7 110.9" style="enable-background:new 0 0 109.7 110.9;" xml:space="preserve">
<style type="text/css">
	.st0{fill:#CC79B2;}
</style>
<path class="st0" d="M100.5,10C90,1.3,70.3,0.3,59,0S28.3,2.5,8.3,40.1S10.8,99,10.8,99s9.8,10.2,19.8,11.2s32.9,2,45.7-7.5
	s30.2-37.2,32.2-50S111,18.8,100.5,10z M45.1,78.6l-7.6-4.5l-3.2,4.4l-0.8-0.6l3.2-4.3l-6.3-3.7l0.5-0.9l6.4,3.8l4-5.4L42,68
	l-3.9,5.3l7.5,4.5L45.1,78.6z M76,44.9l-7.6-4.5l-3.2,4.4l-0.8-0.6l3.2-4.3l-6.3-3.7l0.5-0.9l6.4,3.8l4-5.4l0.8,0.6L69,39.6l7.5,4.5
	L76,44.9z"/>
</svg>
