<?xml version="1.0" encoding="utf-8"?>
<!-- Generator: Adobe Illustrator 19.1.0, SVG Export Plug-In . SVG Version: 6.00 Build 0)  -->
<svg version="1.1" id="Layer_1" xmlns="http://www.w3.org/2000/svg" xmlns:xlink="http://www.w3.org/1999/xlink" x="0px" y="0px"
	 viewBox="0 0 38.4 50.9" style="enable-background:new 0 0 38.4 50.9;" xml:space="preserve">
<style type="text/css">
	.st0{fill:none;}
	.st1{fill:#E7EB90;}
</style>
<g>
	<polygon class="st0" points="26.3,45.1 26.3,49.9 21,49.9 21,50.9 28.3,50.9 28.3,45.1 	"/>
	<path class="st0" d="M34,50.9h4.5v-4.7C36.1,46.5,34.2,48.4,34,50.9z"/>
	<path class="st0" d="M21.7,35.5c9-8.8,15.6-31.1,16.8-35.5v-19.5h-86.2v70.4H0C6.1,47.4,15.4,41.6,21.7,35.5z"/>
	<polygon class="st0" points="37.7,38 32.9,38 32.9,40 38.4,40 38.4,32.7 37.7,32.7 	"/>
	<path class="st1" d="M0,50.9h21v-1h5.2v-4.8h2v5.8H34c0.2-2.4,2.1-4.4,4.5-4.7V40h-5.5v-2h4.8v-5.2h0.8V0
		c-1.2,4.4-7.8,26.7-16.8,35.5C15.4,41.6,6.1,47.4,0,50.9z"/>
</g>
<rect class="st0" width="38.4" height="50.9"/>
</svg>
