<?xml version="1.0" encoding="utf-8"?>
<!-- Generator: Adobe Illustrator 19.1.0, SVG Export Plug-In . SVG Version: 6.00 Build 0)  -->
<svg version="1.1" id="Layer_1" xmlns="http://www.w3.org/2000/svg" xmlns:xlink="http://www.w3.org/1999/xlink" x="0px" y="0px"
	 viewBox="0 0 80 65.5" style="enable-background:new 0 0 80 65.5;" xml:space="preserve">
<style type="text/css">
	.st0{fill:none;}
	.st1{fill:#5FC7CE;}
	.st2{display:none;fill:#5FC7CE;}
</style>
<g>
	<path class="st0" d="M4.7,0.1L5,0C4.8,0,4.7,0,4.5,0L4.7,0.1z"/>
	<path class="st0" d="M4.5,0L3.8,0H0v0l4,0.2C4.2,0.1,4.4,0.1,4.5,0z"/>
	<path class="st0" d="M4,0.2C3.1,0.6,2.5,1.5,2.5,2.5C2.5,3.9,3.6,5,5,5s2.5-1.1,2.5-2.5c0-1.1-0.7-2.1-1.8-2.4l-1-0.1L4,0.2z"/>
	<circle class="st0" cx="58.3" cy="33.1" r="2.5"/>
	<path class="st0" d="M72,56.6c-9.5-2-12.4-10-25.2-10.4C33.9,45.8,28,52.4,20.2,54S4.9,57.1,2.5,55.8c-1.2-0.6-2.4-4-2.5-7.1v12.1
		c6.2-0.2,12,0.5,23-3.1c11.4-3.7,13.8-6.7,20.8-7.2c7-0.5,10.7,0.8,14.8,3.5c4.1,2.8,8.9,7.1,19.9,6.1c0.5,0,1-0.1,1.5-0.2v-3
		C78,57.3,75.3,57.3,72,56.6z"/>
	<circle class="st0" cx="64.2" cy="47.5" r="2.5"/>
	<path class="st0" d="M0,48.6v0.1C0,48.7,0,48.6,0,48.6z"/>
	<circle class="st0" cx="46.2" cy="60.9" r="2.5"/>
	<circle class="st0" cx="76.2" cy="30.6" r="2.5"/>
	<circle class="st0" cx="54.8" cy="24.5" r="2.5"/>
	<circle class="st0" cx="75" cy="40" r="2.5"/>
	<circle class="st0" cx="47.5" cy="19.5" r="2.5"/>
	<path class="st0" d="M5,0c0.3,0,0.5,0.1,0.7,0.1L80,0v0H5z"/>
	<path class="st0" d="M65.2,22C56,19,54,10.8,41.2,9S22,13.2,14,14S2.2,15.8,0,14.2v2.8c5.5,0.5,5.4,1.3,16.5-0.8
		C28.2,14,31,11.3,38,11.7c7,0.3,10.5,2.1,14.2,5.3s8,8.1,19,8.6c3.6,0.1,6.5,0,8.8-0.4V9.8L78.8,22C78.8,22,74.5,25,65.2,22z"/>
	<circle class="st0" cx="66.8" cy="35.6" r="2.5"/>
	<circle class="st0" cx="77.5" cy="7.5" r="2.5"/>
	<circle class="st0" cx="73.8" cy="51" r="2.5"/>
	<circle class="st0" cx="35.5" cy="19.5" r="2.5"/>
	<circle class="st0" cx="30.6" cy="45" r="2.5"/>
	<circle class="st0" cx="25.6" cy="19.5" r="2.5"/>
	<circle class="st0" cx="18.8" cy="29.5" r="2.5"/>
	<circle class="st0" cx="23.8" cy="38.5" r="2.5"/>
	<circle class="st0" cx="29.4" cy="28.1" r="2.5"/>
	<circle class="st0" cx="41.2" cy="24.5" r="2.5"/>
	<circle class="st0" cx="42.5" cy="42.5" r="2.5"/>
	<circle class="st0" cx="47.5" cy="32" r="2.5"/>
	<circle class="st0" cx="36.2" cy="34.5" r="2.5"/>
	<circle class="st0" cx="21.2" cy="50" r="2.5"/>
	<circle class="st0" cx="10" cy="24.5" r="2.5"/>
	<circle class="st0" cx="11.5" cy="50" r="2.5"/>
	<circle class="st0" cx="52.2" cy="43.5" r="2.5"/>
	<circle class="st0" cx="14" cy="38.5" r="2.5"/>
	<circle class="st0" cx="5" cy="34.5" r="2.5"/>
	<path class="st1" d="M7.5,2.5C7.5,3.9,6.4,5,5,5S2.5,3.9,2.5,2.5c0-1,0.6-1.9,1.5-2.3L0,0v14.2c2.2,1.5,6,0.5,14-0.2
		s14.5-6.8,27.2-5s14.8,10,24,13s13.5,0,13.5,0L80,9.8V7.5c0,1.4-1.1,2.5-2.5,2.5S75,8.9,75,7.5S76.1,5,77.5,5S80,6.1,80,7.5V0
		L5.7,0.1C6.8,0.4,7.5,1.4,7.5,2.5z"/>
	<path class="st1" d="M5,0H3.8l0.8,0C4.7,0,4.8,0,5,0z"/>
	<path class="st1" d="M4.5,0C4.4,0.1,4.2,0.1,4,0.2l0.7-0.1L4.5,0z"/>
	<path class="st1" d="M5.7,0.1C5.5,0.1,5.3,0,5,0L4.7,0.1L5.7,0.1z"/>
	<path class="st1" d="M71.2,25.6c-11-0.4-15.2-5.3-19-8.6S45,12,38,11.7c-7-0.3-9.8,2.3-21.5,4.6C5.4,18.4,5.5,17.6,0,17.1V45v2.5
		C0,46.1,1.1,45,2.5,45c0.9,0,1.8,0.5,2.2,1.3c0,0.8,0,1.6,0,2.4C4.2,49.5,3.4,50,2.5,50C1.1,50,0,48.9,0,47.5v1.1c0,0,0,0.1,0,0.1
		c0.1,3.1,1.3,6.5,2.5,7.1c2.4,1.3,9.8-0.2,17.7-1.8s13.7-8.2,26.6-7.8c12.9,0.4,15.7,8.4,25.2,10.4c3.4,0.7,6,0.7,8,0.5V25.2
		C77.7,25.5,74.8,25.7,71.2,25.6z M47.5,17c1.4,0,2.5,1.1,2.5,2.5S48.9,22,47.5,22S45,20.9,45,19.5S46.1,17,47.5,17z M25.6,17
		c1.4,0,2.5,1.1,2.5,2.5S27,22,25.6,22c-1.4,0-2.5-1.1-2.5-2.5S24.2,17,25.6,17z M5,37c-1.4,0-2.5-1.1-2.5-2.5S3.6,32,5,32
		s2.5,1.1,2.5,2.5S6.4,37,5,37z M7.5,24.5c0-1.4,1.1-2.5,2.5-2.5s2.5,1.1,2.5,2.5S11.4,27,10,27S7.5,25.9,7.5,24.5z M11.5,52.5
		C10.1,52.5,9,51.4,9,50s1.1-2.5,2.5-2.5S14,48.6,14,50S12.9,52.5,11.5,52.5z M14,41c-1.4,0-2.5-1.1-2.5-2.5S12.6,36,14,36
		s2.5,1.1,2.5,2.5S15.4,41,14,41z M16.2,29.5c0-1.4,1.1-2.5,2.5-2.5s2.5,1.1,2.5,2.5S20.1,32,18.8,32S16.2,30.9,16.2,29.5z
		 M21.2,52.5c-1.4,0-2.5-1.1-2.5-2.5s1.1-2.5,2.5-2.5s2.5,1.1,2.5,2.5S22.6,52.5,21.2,52.5z M23.8,41c-1.4,0-2.5-1.1-2.5-2.5
		s1.1-2.5,2.5-2.5s2.5,1.1,2.5,2.5S25.1,41,23.8,41z M26.9,28.1c0-1.4,1.1-2.5,2.5-2.5c1.4,0,2.5,1.1,2.5,2.5c0,1.4-1.1,2.5-2.5,2.5
		C28.1,30.6,26.9,29.4,26.9,28.1z M30.6,47.5c-1.4,0-2.5-1.1-2.5-2.5s1.1-2.5,2.5-2.5c1.4,0,2.5,1.1,2.5,2.5S32,47.5,30.6,47.5z
		 M33,19.5c0-1.4,1.1-2.5,2.5-2.5s2.5,1.1,2.5,2.5S36.9,22,35.5,22S33,20.9,33,19.5z M36.2,37c-1.4,0-2.5-1.1-2.5-2.5
		s1.1-2.5,2.5-2.5s2.5,1.1,2.5,2.5S37.6,37,36.2,37z M38.8,24.5c0-1.4,1.1-2.5,2.5-2.5s2.5,1.1,2.5,2.5S42.6,27,41.2,27
		S38.8,25.9,38.8,24.5z M42.5,45c-1.4,0-2.5-1.1-2.5-2.5s1.1-2.5,2.5-2.5s2.5,1.1,2.5,2.5S43.9,45,42.5,45z M47.5,34.5
		c-1.4,0-2.5-1.1-2.5-2.5s1.1-2.5,2.5-2.5S50,30.6,50,32S48.9,34.5,47.5,34.5z M52.2,46c-1.4,0-2.5-1.1-2.5-2.5s1.1-2.5,2.5-2.5
		s2.5,1.1,2.5,2.5S53.6,46,52.2,46z M52.2,24.5c0-1.4,1.1-2.5,2.5-2.5s2.5,1.1,2.5,2.5S56.1,27,54.8,27S52.2,25.9,52.2,24.5z
		 M58.3,35.6c-1.4,0-2.5-1.1-2.5-2.5c0-1.4,1.1-2.5,2.5-2.5s2.5,1.1,2.5,2.5C60.8,34.4,59.6,35.6,58.3,35.6z M64.2,50
		c-1.4,0-2.5-1.1-2.5-2.5s1.1-2.5,2.5-2.5s2.5,1.1,2.5,2.5S65.6,50,64.2,50z M66.8,38.1c-1.4,0-2.5-1.1-2.5-2.5
		c0-1.4,1.1-2.5,2.5-2.5s2.5,1.1,2.5,2.5C69.2,36.9,68.1,38.1,66.8,38.1z M73.8,53.5c-1.4,0-2.5-1.1-2.5-2.5s1.1-2.5,2.5-2.5
		s2.5,1.1,2.5,2.5S75.1,53.5,73.8,53.5z M75,42.5c-1.4,0-2.5-1.1-2.5-2.5s1.1-2.5,2.5-2.5s2.5,1.1,2.5,2.5S76.4,42.5,75,42.5z
		 M76.2,28.1c1.4,0,2.5,1.1,2.5,2.5c0,1.4-1.1,2.5-2.5,2.5s-2.5-1.1-2.5-2.5C73.8,29.2,74.9,28.1,76.2,28.1z"/>
	<path class="st2" d="M2.5,50c0.9,0,1.7-0.5,2.2-1.3c0-0.8,0-1.6,0-2.4C4.3,45.5,3.4,45,2.5,45C1.1,45,0,46.1,0,47.5S1.1,50,2.5,50z
		"/>
	<path class="st1" d="M58.6,54.1c-4.1-2.8-7.8-4.1-14.8-3.5c-7,0.5-9.4,3.5-20.8,7.2c-11,3.6-16.7,2.8-23,3.1v4.6h80v-5.4
		c-0.5,0.1-1,0.1-1.5,0.2C67.5,61.2,62.7,56.9,58.6,54.1z M46.2,63.4c-1.4,0-2.5-1.1-2.5-2.5c0-1.4,1.1-2.5,2.5-2.5s2.5,1.1,2.5,2.5
		C48.8,62.3,47.6,63.4,46.2,63.4z"/>
</g>
</svg>
