<?xml version="1.0" encoding="utf-8"?>
<!-- Generator: Adobe Illustrator 19.1.0, SVG Export Plug-In . SVG Version: 6.00 Build 0)  -->
<svg version="1.1" id="Layer_1" xmlns="http://www.w3.org/2000/svg" xmlns:xlink="http://www.w3.org/1999/xlink" x="0px" y="0px"
	 viewBox="0 0 80.1 86.3" style="enable-background:new 0 0 80.1 86.3;" xml:space="preserve">
<style type="text/css">
	.st0{fill:none;stroke:#A45CA4;stroke-miterlimit:10;}
	.st1{fill:#8F53A1;}
	.st2{fill:none;stroke:#33B55F;stroke-miterlimit:10;}
	.st3{fill:#33B55F;}
</style>
<g>
	<line class="st0" x1="33.2" y1="0.8" x2="49.2" y2="0.5"/>
	<line class="st0" x1="41.2" y1="0.8" x2="41.2" y2="6"/>
</g>
<g>
	<line class="st0" x1="0.7" y1="50.6" x2="0.5" y2="34.6"/>
	<line class="st0" x1="0.7" y1="42.6" x2="5.9" y2="42.7"/>
</g>
<g>
	<circle class="st1" cx="39.4" cy="43.9" r="2.5"/>
	<circle class="st2" cx="39.4" cy="43.9" r="4.4"/>
</g>
<g>
	<g>
		<path class="st3" d="M33.7,24.9c-0.8-4.3-3.9-6.2-8.2-11.4S15.4,7.4,10.8,7.7c0,0,0,0-0.8,1.7c-0.8,1.7-0.3,1.7,0,6.2
			s4.5,7.5,9.8,13.2c5.3,5.7,12.2,3.7,13.2,2.8C33.9,30.7,34.4,29.2,33.7,24.9z M19.6,20.6c-2,1.1-2,1.3-4.3-0.7
			c-2.3-2-2.2-4-2.8-6.3s0.7-2.7,3.7-2.3c3.1,0.3,5.6,4,6.8,5.5S22.1,19.2,19.6,20.6z M27.4,29.9c-3.1-0.1-5.9-3.6-7.2-5
			c-1.3-1.4,0.7-2.5,3.1-4.1c1.9-1.2,1.9-1.5,4.4,0.3c2.5,1.8,2.5,3.8,3.3,6.1C31.8,29.6,30.5,30,27.4,29.9z"/>
		
			<ellipse transform="matrix(-0.6639 -0.7478 0.7478 -0.6639 21.1191 49.7947)" class="st2" cx="21.7" cy="20.2" rx="22" ry="11.5"/>
	</g>
	<g>
		<path class="st3" d="M47.8,32.8c1,0.8,7.8,2.8,13.2-2.8c5.3-5.7,9.5-8.7,9.8-13.2s0.8-4.5,0-6.2C70,9,70,9,70,9
			c-4.7-0.3-10.5,0.7-14.7,5.8s-7.4,7.1-8.2,11.4S46.8,32,47.8,32.8z M57.7,18c1.2-1.5,3.7-5.2,6.8-5.5c3.1-0.3,4.4,0,3.8,2.3
			s-0.5,4.3-2.8,6.3c-2.3,2-2.4,1.7-4.3,0.7C58.6,20.5,56.5,19.5,57.7,18z M49.7,28.6c0.8-2.3,0.8-4.3,3.3-6.1
			c2.5-1.8,2.5-1.6,4.4-0.3c2.4,1.5,4.5,2.7,3.1,4.1c-1.3,1.4-4.1,4.9-7.2,5C50.2,31.3,48.9,30.9,49.7,28.6z"/>
		<ellipse transform="matrix(0.6639 -0.7478 0.7478 0.6639 3.8117 51.2876)" class="st2" cx="59" cy="21.4" rx="22" ry="11.5"/>
	</g>
</g>
<g>
	<g>
		<path class="st3" d="M32.9,56.2c-1-0.8-7.8-2.8-13.2,2.8c-5.3,5.7-9.5,8.7-9.8,13.2s-0.8,4.5,0,6.2c0.8,1.7,0.8,1.7,0.8,1.7
			c4.7,0.3,10.5-0.7,14.7-5.8s7.4-7.1,8.2-11.4S33.9,57.1,32.9,56.2z M23,71.1c-1.2,1.5-3.7,5.2-6.8,5.5c-3.1,0.3-4.4,0-3.7-2.3
			s0.5-4.3,2.8-6.3c2.3-2,2.4-1.7,4.3-0.7C22.1,68.6,24.2,69.6,23,71.1z M31,60.5c-0.8,2.3-0.8,4.3-3.3,6.1
			c-2.5,1.8-2.5,1.6-4.4,0.3c-2.4-1.5-4.5-2.7-3.1-4.1c1.3-1.4,4.1-4.9,7.2-5C30.5,57.8,31.8,58.2,31,60.5z"/>
		
			<ellipse transform="matrix(-0.6639 0.7478 -0.7478 -0.6639 86.7982 96.3354)" class="st2" cx="21.7" cy="67.7" rx="22" ry="11.5"/>
	</g>
	<g>
		<path class="st3" d="M47,61.6c0.8,4.3,3.9,6.2,8.2,11.4s10.1,6.2,14.7,5.8c0,0,0,0,0.8-1.7c0.8-1.7,0.3-1.7,0-6.2
			s-4.5-7.5-9.8-13.2c-5.3-5.7-12.2-3.7-13.2-2.8S46.3,57.3,47,61.6z M61.1,66c2-1.1,2-1.3,4.3,0.7c2.3,2,2.2,4,2.8,6.3
			s-0.7,2.7-3.8,2.3c-3.1-0.3-5.6-4-6.8-5.5S58.6,67.3,61.1,66z M53.3,56.6c3.1,0.1,5.9,3.6,7.2,5c1.3,1.4-0.7,2.5-3.1,4.1
			c-1.9,1.2-1.9,1.5-4.4-0.3c-2.5-1.8-2.5-3.8-3.3-6.1C48.9,57,50.2,56.5,53.3,56.6z"/>
		<ellipse transform="matrix(0.6639 0.7478 -0.7478 0.6639 69.4907 -21.7678)" class="st2" cx="59" cy="66.4" rx="22" ry="11.5"/>
	</g>
</g>
<g>
	<line class="st0" x1="79.5" y1="51.9" x2="79.6" y2="35.9"/>
	<line class="st0" x1="79.4" y1="43.9" x2="74.2" y2="44"/>
</g>
<g>
	<line class="st0" x1="32.7" y1="84" x2="48.7" y2="84.4"/>
	<line class="st0" x1="40.7" y1="84" x2="40.7" y2="78.9"/>
</g>
</svg>
